<svg id="Layer_1" data-name="Layer 1" xmlns="http://www.w3.org/2000/svg" viewBox="0 0 375.2254 180.8865"><defs><style>.cls-1{fill:none;stroke:#fff;stroke-miterlimit:10;}.cls-2{fill:#0a374d;}.cls-3,.cls-8{fill:#fff;}.cls-4{fill:#c25828;}.cls-5{fill:#1287a8;}.cls-6{fill:#9a2820;}.cls-7{fill:#bba135;}.cls-8{font-size:24px;font-family:VarelaRound-Regular, VarelaRound Regular;}.cls-9{letter-spacing:-0.015em;}</style></defs><title>age_groups</title><g id="_13-17" data-name="13-17"><path class="cls-1" d="M214.57,321.884v35.7981s5.0161,6.6852,8.2081,0V331.157h2.052v26.5251s5.2441,6.6852,8.2082-.2157V321.884Z" transform="translate(-204.1745 -185.1664)"/><path class="cls-1" d="M214.57,319.9431h18.4683V307.4353a3.71,3.71,0,0,1,1.14,2.1565l5.244-.6469s-2.052-10.5669-10.0321-10.1356c0,0-4.56,9.2473-10.26-.0129,0,0-7.0681-1.9408-10.7161,10.5734l5.13.4377s.456-1.9409,1.026-1.7252Z" transform="translate(-204.1745 -185.1664)"/><path class="cls-1" d="M208.4142,310.2388l4.9021.5391s-2.1661,4.0974-1.4821,18.0069c0,0-3.42,3.8817-5.358-.4313C206.4762,328.3535,206.4762,312.5031,208.4142,310.2388Z" transform="translate(-204.1745 -185.1664)"/><path class="cls-1" d="M239.7886,310.2388l-4.9021.5391s2.1661,4.0974,1.4821,18.0069c0,0,3.42,3.8817,5.358-.4313C241.7266,328.3535,241.7266,312.5031,239.7886,310.2388Z" transform="translate(-204.1745 -185.1664)"/><ellipse class="cls-1" cx="19.9058" cy="103.5824" rx="8.5593" ry="8.0956"/><rect class="cls-2" y="49.2704" width="45" height="35" rx="12"/><path class="cls-3" d="M213.3628,254.2636h1.6313V250.33h-1.4394v-1.2715a5.3959,5.3959,0,0,0,1.9907-.7431h1.5112v5.9482h1.3677v1.6553h-5.0615Z" transform="translate(-204.1745 -185.1664)"/><path class="cls-3" d="M219.291,254.9833l.9356-1.2949a2.4023,2.4023,0,0,0,1.559.72c.6719,0,1.1036-.24,1.1036-.72,0-.5762-.3-.9121-1.8951-.9121v-1.4385c1.2715,0,1.6553-.3359,1.6553-.8642,0-.4551-.2759-.6953-.7915-.6953a1.983,1.983,0,0,0-1.3433.624l-1.0317-1.2481a3.7488,3.7488,0,0,1,2.4707-.9834c1.6792,0,2.7588.7676,2.7588,2.1475a1.7542,1.7542,0,0,1-1.2236,1.6426v.0478a1.851,1.851,0,0,1,1.4633,1.8233c0,1.4394-1.3671,2.23-2.9506,2.23A3.4044,3.4044,0,0,1,219.291,254.9833Z" transform="translate(-204.1745 -185.1664)"/><path class="cls-3" d="M226.0591,252.1533h3.0224v1.4384h-3.0224Z" transform="translate(-204.1745 -185.1664)"/><path class="cls-3" d="M230.1626,254.2636h1.6313V250.33h-1.4394v-1.2715a5.3959,5.3959,0,0,0,1.9907-.7431h1.5112v5.9482h1.3677v1.6553h-5.0615Z" transform="translate(-204.1745 -185.1664)"/><path class="cls-3" d="M239.6411,250.0419h-3.2622v-1.7265h5.4448v1.2715c-1.7509,2.0507-1.9428,3.37-2.0869,6.332h-2.0625A9.7579,9.7579,0,0,1,239.6411,250.0419Z" transform="translate(-204.1745 -185.1664)"/></g><g id="_18-29" data-name="18-29"><ellipse class="cls-1" cx="104.6363" cy="102.4045" rx="8.3207" ry="7.6279"/><path class="cls-1" d="M309.3067,302.7274a7.1847,7.1847,0,0,1-4.5692-5.6169H300.49s-9.98,1.5232-8.8373,26.18l5.7116.9937s-.5193-16.06,2.2846-19.0941l.1039,16.3867,18.7964-.0952V305.19s2.7,4.7722,2.2846,18.7668l5.6078-.5712s1.8877-23.8955-9.31-26.2755h-3.6708S313.5645,300.0617,309.3067,302.7274Z" transform="translate(-204.1745 -185.1664)"/><path class="cls-1" d="M291.5616,324.2845l5.6988.91v3.2368s-2.1808,3.808-5.1923,0Z" transform="translate(-204.1745 -185.1664)"/><path class="cls-1" d="M326.5616,324.2845l-5.6989.91v3.2368s2.1808,3.808,5.1924,0Z" transform="translate(-204.1745 -185.1664)"/><path class="cls-1" d="M299.4412,322.8148h19.108v34.0819s-4.2578,6.8544-8.4117,0l-.3115-30.75h-1.6616v30.8451s-2.9077,6.5688-8.7232,0Z" transform="translate(-204.1745 -185.1664)"/><rect class="cls-4" x="82.3871" y="49.2704" width="45" height="35" rx="12"/><path class="cls-3" d="M296.312,252.9345h1.6314v-3.9336h-1.44v-1.2715a5.3959,5.3959,0,0,0,1.9907-.7431h1.5113v5.9482h1.3676V254.59H296.312Z" transform="translate(-204.1745 -185.1664)"/><path class="cls-3" d="M302.5044,252.6464a1.9834,1.9834,0,0,1,1.2471-1.7988V250.8a2.19,2.19,0,0,1-1.0074-1.7988c0-1.3437,1.0552-2.1592,2.5425-2.1592a2.119,2.119,0,0,1,2.375,2.1114,1.9318,1.9318,0,0,1-.9717,1.5947v.0478a2.1714,2.1714,0,0,1,1.3072,2.003c0,1.2236-1.1153,2.1347-2.7823,2.1347C303.6675,254.7333,302.5044,253.8945,302.5044,252.6464Zm3.5859-.1191c0-.5518-.5278-.7676-1.4272-1.1514a1.637,1.637,0,0,0-.396,1.0313.91.91,0,0,0,.9956.9111A.7342.7342,0,0,0,306.09,252.5273Zm-.084-3.4307a.74.74,0,0,0-.7675-.8388.6618.6618,0,0,0-.6958.7431c0,.5039.4077.7676,1.1274,1.0557A1.6683,1.6683,0,0,0,306.0063,249.0966Z" transform="translate(-204.1745 -185.1664)"/><path class="cls-3" d="M309.0083,250.8242h3.0225v1.4384h-3.0225Z" transform="translate(-204.1745 -185.1664)"/><path class="cls-3" d="M312.752,253.414c1.7993-1.6543,3.19-2.9258,3.19-3.957a.8858.8858,0,0,0-.9356-1.0078,1.87,1.87,0,0,0-1.2475.72l-1.103-1.1035a3.2905,3.2905,0,0,1,2.6381-1.2237,2.4255,2.4255,0,0,1,2.6148,2.4952c0,1.2236-1.1514,2.5664-2.1826,3.622a12.2937,12.2937,0,0,1,1.271-.0957h1.2714V254.59h-5.517Z" transform="translate(-204.1745 -185.1664)"/><path class="cls-3" d="M319.28,253.7744l1.08-1.2237a1.7307,1.7307,0,0,0,1.1513.5283c.8155,0,1.4156-.6005,1.4156-2.4228,0-1.8955-.5879-2.2793-1.0557-2.2793-.4316,0-.8154.2519-.8154,1.0557,0,.7314.4077.9111.8393.9111a1.1387,1.1387,0,0,0,1.0074-.7188l.0961,1.295a2.0232,2.0232,0,0,1-1.5112.8632,2.13,2.13,0,0,1-2.3027-2.35,2.505,2.505,0,0,1,2.6387-2.5909c1.4628,0,2.9741,1.0557,2.9741,3.8145s-1.5113,4.0771-3.1421,4.0771A3.3,3.3,0,0,1,319.28,253.7744Z" transform="translate(-204.1745 -185.1664)"/></g><g id="_30-49" data-name="30-49"><ellipse class="cls-1" cx="187.8338" cy="100.1975" rx="7.7116" ry="7.9209"/><path class="cls-1" d="M384.2966,295.2044h16.4461s10.78,3.1714,8.2772,32.4333c0,0-2.8874,4.35-5.101,0,0,0,.77-19.7716-2.5987-23.1327v54.174s-3.85,8.3041-8.47,0V325.4073h-1.8287V358.679s-3.7536,8.4029-8.47.0989v-54.57s-3.08,3.3612-2.31,22.7373c0,0-1.8287,6.1292-5.5823.3954C374.66,327.3411,371.8928,297.6679,384.2966,295.2044Z" transform="translate(-204.1745 -185.1664)"/><polygon class="cls-1" points="186.366 118.251 189.254 118.251 191.082 132.091 187.834 136.639 184.538 132.487 186.366 118.251"/><path class="cls-1" d="M390.5407,298.87l-.4812,2.4714a2.4474,2.4474,0,0,0,3.85,0l-.77-2.4714Z" transform="translate(-204.1745 -185.1664)"/><rect class="cls-5" x="165.2223" y="49.2704" width="45" height="35" rx="12"/><path class="cls-3" d="M377.3076,254.3183l.9356-1.2949a2.4029,2.4029,0,0,0,1.56.72c.6719,0,1.1036-.24,1.1036-.72,0-.5762-.3-.9121-1.8956-.9121v-1.4385c1.2715,0,1.6553-.3359,1.6553-.8643,0-.455-.2754-.6953-.791-.6953a1.9837,1.9837,0,0,0-1.3437.624l-1.0313-1.248a3.7478,3.7478,0,0,1,2.4707-.9834c1.6787,0,2.7578.7676,2.7578,2.1475a1.753,1.753,0,0,1-1.2226,1.6425v.0479a1.8511,1.8511,0,0,1,1.4629,1.8232c0,1.44-1.3672,2.2305-2.95,2.2305A3.4063,3.4063,0,0,1,377.3076,254.3183Z" transform="translate(-204.1745 -185.1664)"/><path class="cls-3" d="M383.9561,251.416c0-2.6026,1.1513-3.91,2.83-3.91s2.8311,1.3193,2.8311,3.91c0,2.6025-1.1514,3.9814-2.8311,3.9814S383.9561,254.0185,383.9561,251.416Zm3.7177,0c0-2.0147-.4082-2.3272-.8877-2.3272s-.8877.3125-.8877,2.3272.4082,2.3984.8877,2.3984S387.6738,253.4306,387.6738,251.416Z" transform="translate(-204.1745 -185.1664)"/><path class="cls-3" d="M390.5557,251.4882h3.0224v1.4385h-3.0224Z" transform="translate(-204.1745 -185.1664)"/><path class="cls-3" d="M397.3457,251.1279c0-.5157.0479-1.2832.0723-1.7989H397.37c-.1924.4561-.4082.9112-.624,1.3672l-.6953,1.2959H400.08v1.5586h-5.9727v-1.4394l2.5908-4.461h2.5664v7.6035h-1.9189Z" transform="translate(-204.1745 -185.1664)"/><path class="cls-3" d="M400.8271,254.4384l1.08-1.2236a1.73,1.73,0,0,0,1.1514.5283c.8154,0,1.415-.6006,1.415-2.4228,0-1.8956-.5879-2.2793-1.0556-2.2793-.4317,0-.8155.2519-.8155,1.0556,0,.7315.4082.9112.84.9112a1.1382,1.1382,0,0,0,1.0068-.7188l.0967,1.2949a2.0243,2.0243,0,0,1-1.5117.8633,2.13,2.13,0,0,1-2.3028-2.3506,2.5051,2.5051,0,0,1,2.6387-2.5908c1.4629,0,2.9746,1.0557,2.9746,3.8145s-1.5117,4.0771-3.1426,4.0771A3.3016,3.3016,0,0,1,400.8271,254.4384Z" transform="translate(-204.1745 -185.1664)"/></g><g id="_50-64" data-name="50-64"><ellipse class="cls-1" cx="271.487" cy="99.9125" rx="8.9567" ry="9.5261"/><path class="cls-1" d="M469.3141,292.984s2.6968,3.1148,6.3474,2.6852c0,0,4.3575-.2148,6.3773-2.6852,0,0,16.6632,2.1481,13.3306,36.6265,0,0-2.7268,5.37-5.7564,0l-.202-9.13s3.4336-6.3371-2.3228-13.7484c0,0,8.0493,19.2263-11.4267,22.4485,0,0-18.6681-1.7185-11.0939-22.7707a14.2279,14.2279,0,0,0-2.7267,13.9632l.2019,9.0223s-2.8277,5.6927-5.9583-.1074C456.0845,329.2882,452.7518,296.8507,469.3141,292.984Z" transform="translate(-204.1745 -185.1664)"/><path class="cls-1" d="M462.8508,322.1992s4.2117,8.4854,12.8107,7.9483c0,0,11.1373-1.2878,12.9416-7.5186l-1.9188,38.6673s-5.05,9.13-10.099,0V335.4106h-1.7168v25.6707s-4.5445,9.9891-10.3009.1074Z" transform="translate(-204.1745 -185.1664)"/><rect class="cls-6" x="248.2118" y="49.2704" width="45" height="35" rx="12"/><path class="cls-3" d="M460.6807,254.3178l.9121-1.2949a2.4145,2.4145,0,0,0,1.5351.72c.72,0,1.127-.3125,1.127-.9834a.9328.9328,0,0,0-1.0313-.9844,1.6493,1.6493,0,0,0-1.0556.36l-.8867-.5762.1914-3.9092h4.51v1.7266H463.248l-.0966,1.1035a1.938,1.938,0,0,1,.72-.12,2.239,2.239,0,0,1,2.4473,2.3506,2.678,2.678,0,0,1-2.8789,2.6865A3.7447,3.7447,0,0,1,460.6807,254.3178Z" transform="translate(-204.1745 -185.1664)"/><path class="cls-3" d="M467.3047,251.4155c0-2.6026,1.1514-3.91,2.831-3.91s2.83,1.3193,2.83,3.91c0,2.6025-1.1513,3.9814-2.83,3.9814S467.3047,254.018,467.3047,251.4155Zm3.7187,0c0-2.0147-.4082-2.3272-.8877-2.3272s-.8877.3125-.8877,2.3272.4073,2.3984.8877,2.3984S471.0234,253.43,471.0234,251.4155Z" transform="translate(-204.1745 -185.1664)"/><path class="cls-3" d="M473.9053,251.4877h3.0224v1.4385h-3.0224Z" transform="translate(-204.1745 -185.1664)"/><path class="cls-3" d="M477.6729,251.5834c0-2.7588,1.5107-4.0781,3.1425-4.0781a3.2979,3.2979,0,0,1,2.3741.96l-1.0791,1.2236a1.7281,1.7281,0,0,0-1.1514-.5283c-.8037,0-1.4151.6-1.4151,2.4228,0,1.8946.5879,2.2784,1.0557,2.2784.4317,0,.8154-.252.8154-1.0547,0-.7325-.4082-.9121-.84-.9121a1.1414,1.1414,0,0,0-1.0078.72l-.0957-1.2949a2.0241,2.0241,0,0,1,1.5117-.8633,2.13,2.13,0,0,1,2.3027,2.3506,2.5047,2.5047,0,0,1-2.6386,2.59C479.1836,255.3969,477.6729,254.3422,477.6729,251.5834Z" transform="translate(-204.1745 -185.1664)"/><path class="cls-3" d="M487.1748,251.1274c0-.5156.0479-1.2832.0723-1.7988h-.0479c-.1924.456-.4082.9111-.624,1.3671l-.6953,1.2959h4.0293V253.55h-5.9727v-1.4394l2.5908-4.461h2.5665v7.6036h-1.919Z" transform="translate(-204.1745 -185.1664)"/></g><g id="_65_" data-name="65+"><path class="cls-1" d="M549.5,288.4673s.1049-8.2556,7.34-8.1524,7.76,7.12,7.76,7.12-.6292,9.7-7.55,10.2163C557.05,297.6516,551.2823,298.2708,549.5,288.4673Z" transform="translate(-204.1745 -185.1664)"/><path class="cls-1" d="M551.0726,294.8653s3.3556,4.5406,5.9771,4.0246c0,0,4.5212-.9246,5.5576-4.0246h3.2507s10.9056,2.7863,8.1792,31.1649c0,0-1.3632,3.9214-4.7187,0,0,0,1.2583-17.7495-1.4681-21.1549l-.3146,14.9632s-10.0667,5.16-20.8674,0l-.4194-15.17s-2.5167,5.5725-1.5729,21.1549c0,0-1.9924,4.231-4.9285.1032,0,0-2.6215-27.0371,8.3889-31.0617Z" transform="translate(-204.1745 -185.1664)"/><path class="cls-1" d="M546.4587,320.9737a23.9419,23.9419,0,0,0,20.7625.4128,10.5984,10.5984,0,0,1-.6291,4.3341l-.6292,31.0617s-3.88,7.946-8.1792,0V328.1171h-1.3632v28.8716s-3.5652,7.12-8.3889.31l-.8389-31.8872S546.7733,323.45,546.4587,320.9737Z" transform="translate(-204.1745 -185.1664)"/><rect class="cls-7" x="330.2254" y="49.2704" width="45" height="35" rx="12"/><path class="cls-3" d="M549.958,251.5737c0-2.7588,1.5117-4.0782,3.1426-4.0782a3.3018,3.3018,0,0,1,2.375.96l-1.08,1.2236a1.7234,1.7234,0,0,0-1.1514-.5283c-.8027,0-1.415.6-1.415,2.4229,0,1.8945.5879,2.2783,1.0557,2.2783.4316,0,.8154-.252.8154-1.0547,0-.7324-.4072-.9121-.84-.9121a1.1394,1.1394,0,0,0-1.0069.72l-.0957-1.2949a2.0225,2.0225,0,0,1,1.5108-.8633,2.13,2.13,0,0,1,2.3027,2.3506,2.5042,2.5042,0,0,1-2.6387,2.59C551.47,255.3871,549.958,254.3325,549.958,251.5737Z" transform="translate(-204.1745 -185.1664)"/><path class="cls-3" d="M556.2461,254.308l.9121-1.2949a2.4121,2.4121,0,0,0,1.5352.72c.72,0,1.1269-.3125,1.1269-.9834a.9327.9327,0,0,0-1.0312-.9844,1.6478,1.6478,0,0,0-1.0557.36l-.8877-.5761.1924-3.9092h4.51v1.7265h-2.7344l-.0967,1.1036a1.9385,1.9385,0,0,1,.72-.12,2.239,2.239,0,0,1,2.4473,2.3506,2.6779,2.6779,0,0,1-2.8789,2.6865A3.7443,3.7443,0,0,1,556.2461,254.308Z" transform="translate(-204.1745 -185.1664)"/><path class="cls-3" d="M564.957,252.0053H562.87v-1.4394h2.0869v-2.1582h1.4873v2.1582h2.087v1.4394h-2.087v2.1592H564.957Z" transform="translate(-204.1745 -185.1664)"/></g><text class="cls-8" transform="translate(170.222 20.088)"><tspan class="cls-9">A</tspan><tspan x="14.3281" y="0">GE</tspan></text></svg>