<svg id="Layer_1" data-name="Layer 1" xmlns="http://www.w3.org/2000/svg" xmlns:xlink="http://www.w3.org/1999/xlink" viewBox="0 0 367.6777 216.8566"><defs><style>.cls-1,.cls-12{fill:none;}.cls-2{fill:#0a374d;}.cls-3{fill:#bba135;}.cls-4{fill:#c25828;}.cls-5{fill:#1287a8;}.cls-6{fill:#9a2820;}.cls-7{fill:#4f5a90;}.cls-8{fill:#374370;}.cls-9{fill:#fff;}.cls-10{fill:#d2d2d2;}.cls-11{fill:url(#linear-gradient);}.cls-12{stroke:#fff;stroke-miterlimit:10;}.cls-13{fill:#39a4dd;}.cls-14{fill:#0378b8;}.cls-15{fill:#f4e204;}.cls-16{fill:#010101;}</style><linearGradient id="linear-gradient" x1="-45.3254" y1="811.1451" x2="-44.8845" y2="811.619" gradientTransform="translate(-31648.1414 -1668.5554) rotate(-90) scale(42.2827 39.3387)" gradientUnits="userSpaceOnUse"><stop offset="0" stop-color="#fedd57"/><stop offset="0.5" stop-color="#f15843"/><stop offset="1" stop-color="#bb469a"/></linearGradient></defs><title>chart</title><g id="Y-axis"><line class="cls-1" x1="44.7607" y1="0.5253" x2="36.3552" y2="8.9308"/><line class="cls-1" x1="44.4455" x2="52.853" y2="8.4075"/><line class="cls-1" x1="44.7607" y1="0.5253" x2="44.7607" y2="216.8566"/></g><g id="facebook"><rect class="cls-2" x="45.5306" y="24.5251" width="51" height="24" rx="12"/><rect class="cls-3" x="326.6777" y="24.5251" width="41" height="24" rx="12"/><rect class="cls-4" x="98.2237" y="24.5251" width="81" height="24" rx="12"/><rect class="cls-5" x="180.9284" y="24.5251" width="78" height="24" rx="12"/><rect class="cls-6" x="259.8449" y="24.5251" width="65" height="24" rx="12"/><circle class="cls-7" cx="10.7626" cy="36.8074" r="10.6254"/><path class="cls-8" d="M280.3406,202.2809l-5.0046-5.0062c-.083.0251-.29-.0711-.3808-.0529-2.1465.3578-4.2215,0-6.2965.5725-1.0017.2862-1.0733,1.5025-1.431,2.29-.5009,1.431-.4293,3.0052-1.0733,4.3646-.4293.93-1.431,1.5026-1.7888,2.5759-.1193.4476-.1123,1.0119-.2472,1.44l5.0213,5.0189c.1961.0108.3935.0168.5923.0168a10.6254,10.6254,0,0,0,10.6253-10.6254C280.3574,202.6752,280.3514,202.4774,280.3406,202.2809Z" transform="translate(-258.9694 -166.067)"/><path class="cls-9" d="M274.1748,196.7925h-8.8857a1.639,1.639,0,0,0-1.639,1.639v8.8857a1.639,1.639,0,0,0,1.639,1.6391h4.3823l.0076-4.3466H268.55a.2664.2664,0,0,1-.2664-.2654l-.0055-1.4012a.2665.2665,0,0,1,.2664-.2675h1.1274v-1.3538a2.2118,2.2118,0,0,1,2.361-2.4265h1.15a.2665.2665,0,0,1,.2665.2664v1.1814a.2664.2664,0,0,1-.2663.2665l-.7059,0c-.7621,0-.91.3621-.91.8937v1.1721h1.6748a.2663.2663,0,0,1,.2646.2977l-.1661,1.4012a.2664.2664,0,0,1-.2646.2351h-1.5011l-.0076,4.3467h2.6076a1.6391,1.6391,0,0,0,1.639-1.6391v-8.8859a1.6389,1.6389,0,0,0-1.639-1.639Z" transform="translate(-258.9694 -166.067)"/><polygon class="cls-9" points="10.702 42.889 10.71 38.543 10.691 38.543 10.691 42.889 10.702 42.889"/><path class="cls-10" d="M274.1748,196.7925H269.66v5.883h.0112v-1.3538a2.2119,2.2119,0,0,1,2.361-2.4265h1.15a.2665.2665,0,0,1,.2665.2664v1.1814a.2664.2664,0,0,1-.2663.2665l-.7059,0c-.7621,0-.91.3621-.91.8937v1.1721h1.6748a.2663.2663,0,0,1,.2646.2977l-.1661,1.4012a.2664.2664,0,0,1-.2646.2351h-1.5011l-.0076,4.3467h2.6076a1.6391,1.6391,0,0,0,1.639-1.6391v-8.8858A1.6389,1.6389,0,0,0,274.1748,196.7925Z" transform="translate(-258.9694 -166.067)"/><path class="cls-9" d="M319.3184,205.8471l.9121-1.2954a2.41,2.41,0,0,0,1.5351.72c.7188,0,1.127-.312,1.127-.9834a.9326.9326,0,0,0-1.0313-.9834,1.6467,1.6467,0,0,0-1.0556.36l-.8877-.5757.1924-3.91h4.51v1.727h-2.7353l-.0957,1.1035a1.9347,1.9347,0,0,1,.72-.12,2.2381,2.2381,0,0,1,2.4463,2.3511,2.6772,2.6772,0,0,1-2.878,2.6865A3.7468,3.7468,0,0,1,319.3184,205.8471Z" transform="translate(-258.9694 -166.067)"/><path class="cls-9" d="M326.3262,205.1274h1.6308v-3.9336h-1.4394v-1.2715a5.4018,5.4018,0,0,0,1.9912-.7436H330.02v5.9487h1.3672v1.6553h-5.0605Z" transform="translate(-258.9694 -166.067)"/><path class="cls-9" d="M332.2783,201.3139c0-1.56.8633-2.4707,2.0147-2.4707s2.0156.9111,2.0156,2.4707-.8643,2.4941-2.0156,2.4941S332.2783,202.873,332.2783,201.3139Zm2.6153,0c0-1.0557-.2881-1.3437-.6006-1.3437s-.6.288-.6,1.3437.288,1.3672.6,1.3672S334.8936,202.3691,334.8936,201.3139Zm3.8613-2.4707h1.1514l-4.1739,8.0835h-1.1513Zm-.6,5.5889c0-1.5591.8633-2.4707,2.0146-2.4707s2.0147.9116,2.0147,2.4707-.8633,2.4946-2.0147,2.4946S338.1553,205.9912,338.1553,204.4321Zm2.6142,0c0-1.0557-.2871-1.3433-.6-1.3433s-.6.2876-.6,1.3433.2881,1.3672.6,1.3672S340.77,205.4872,340.77,204.4321Z" transform="translate(-258.9694 -166.067)"/><path class="cls-9" d="M387.252,204.84a1.983,1.983,0,0,1,1.247-1.7993v-.0479a2.1907,2.1907,0,0,1-1.0078-1.7988c0-1.3433,1.0557-2.1587,2.543-2.1587a2.1189,2.1189,0,0,1,2.375,2.1108,1.9311,1.9311,0,0,1-.9717,1.5948v.0483a2.17,2.17,0,0,1,1.3076,2.0029c0,1.2232-1.1162,2.1348-2.7832,2.1348C388.415,206.9267,387.252,206.0869,387.252,204.84Zm3.5859-.12c0-.5518-.5274-.7676-1.4277-1.1514a1.6411,1.6411,0,0,0-.3956,1.0317.91.91,0,0,0,.9961.9112A.7342.7342,0,0,0,390.8379,204.72Zm-.084-3.43a.74.74,0,0,0-.7676-.8394.6618.6618,0,0,0-.6953.7437c0,.5039.4072.7676,1.127,1.0552A1.6649,1.6649,0,0,0,390.7539,201.29Z" transform="translate(-258.9694 -166.067)"/><path class="cls-9" d="M394.02,205.1274H395.65v-3.9336h-1.44v-1.2715a5.4011,5.4011,0,0,0,1.9912-.7436h1.5108v5.9487H399.08v1.6553H394.02Z" transform="translate(-258.9694 -166.067)"/><path class="cls-9" d="M399.9717,201.3139c0-1.56.8633-2.4707,2.0146-2.4707s2.0157.9111,2.0157,2.4707-.8643,2.4941-2.0157,2.4941S399.9717,202.873,399.9717,201.3139Zm2.6152,0c0-1.0557-.2881-1.3437-.6006-1.3437s-.6.288-.6,1.3437.2881,1.3672.6,1.3672S402.5869,202.3691,402.5869,201.3139Zm3.8613-2.4707H407.6l-4.1738,8.0835h-1.1514Zm-.6,5.5889c0-1.5591.8633-2.4707,2.0147-2.4707s2.0146.9116,2.0146,2.4707-.8633,2.4946-2.0146,2.4946S405.8486,205.9912,405.8486,204.4321Zm2.6143,0c0-1.0557-.2871-1.3433-.6-1.3433s-.6.2876-.6,1.3433.2881,1.3672.6,1.3672S408.4629,205.4872,408.4629,204.4321Z" transform="translate(-258.9694 -166.067)"/><path class="cls-9" d="M471.7422,200.9057H468.48v-1.727h5.4453V200.45c-1.751,2.0508-1.9424,3.37-2.0869,6.3326h-2.0625A9.76,9.76,0,0,1,471.7422,200.9057Z" transform="translate(-258.9694 -166.067)"/><path class="cls-9" d="M474.9355,204.84a1.9831,1.9831,0,0,1,1.2471-1.7993v-.0479a2.1907,2.1907,0,0,1-1.0078-1.7988c0-1.3433,1.0557-2.1587,2.543-2.1587a2.1189,2.1189,0,0,1,2.375,2.1108,1.9311,1.9311,0,0,1-.9717,1.5948v.0483a2.17,2.17,0,0,1,1.3076,2.0029c0,1.2232-1.1162,2.1348-2.7832,2.1348C476.0986,206.9267,474.9355,206.0869,474.9355,204.84Zm3.586-.12c0-.5518-.5274-.7676-1.4277-1.1514a1.6411,1.6411,0,0,0-.3956,1.0317.91.91,0,0,0,.9952.9112A.7345.7345,0,0,0,478.5215,204.72Zm-.084-3.43a.74.74,0,0,0-.7676-.8394.6618.6618,0,0,0-.6953.7437c0,.5039.4072.7676,1.127,1.0552A1.6649,1.6649,0,0,0,478.4375,201.29Z" transform="translate(-258.9694 -166.067)"/><path class="cls-9" d="M481.1758,201.3139c0-1.56.8633-2.4707,2.0146-2.4707s2.0157.9111,2.0157,2.4707-.8643,2.4941-2.0157,2.4941S481.1758,202.873,481.1758,201.3139Zm2.6152,0c0-1.0557-.2881-1.3437-.6006-1.3437s-.6.288-.6,1.3437.2881,1.3672.6,1.3672S483.791,202.3691,483.791,201.3139Zm3.8613-2.4707h1.1514l-4.1738,8.0835h-1.1514Zm-.6,5.5889c0-1.5591.8633-2.4707,2.0147-2.4707s2.0146.9116,2.0146,2.4707-.8632,2.4946-2.0146,2.4946S487.0527,205.9912,487.0527,204.4321Zm2.6143,0c0-1.0557-.2871-1.3433-.6-1.3433s-.6.2876-.6,1.3433.2881,1.3672.6,1.3672S489.667,205.4872,489.667,204.4321Z" transform="translate(-258.9694 -166.067)"/><path class="cls-9" d="M540.8252,203.1127c0-2.7588,1.5107-4.0776,3.1416-4.0776a3.3,3.3,0,0,1,2.375.9595l-1.0791,1.2231a1.7313,1.7313,0,0,0-1.1514-.5278c-.8037,0-1.415.6-1.415,2.4228,0,1.8951.5869,2.2788,1.0547,2.2788.4316,0,.8154-.2519.8154-1.0556,0-.7315-.4072-.9116-.8389-.9116a1.14,1.14,0,0,0-1.0078.72l-.0957-1.2949a2.0233,2.0233,0,0,1,1.5108-.8638,2.13,2.13,0,0,1,2.3027,2.3506,2.5047,2.5047,0,0,1-2.6387,2.5908C542.3359,206.9267,540.8252,205.871,540.8252,203.1127Z" transform="translate(-258.9694 -166.067)"/><path class="cls-9" d="M547.1123,205.8471l.9121-1.2954a2.41,2.41,0,0,0,1.5352.72c.7187,0,1.1269-.312,1.1269-.9834a.9325.9325,0,0,0-1.0312-.9834,1.6472,1.6472,0,0,0-1.0557.36l-.8877-.5757.1924-3.91h4.5088v1.727h-2.7344l-.0957,1.1035a1.9354,1.9354,0,0,1,.72-.12,2.2381,2.2381,0,0,1,2.4463,2.3511,2.6771,2.6771,0,0,1-2.8779,2.6865A3.7469,3.7469,0,0,1,547.1123,205.8471Z" transform="translate(-258.9694 -166.067)"/><path class="cls-9" d="M553.5928,201.3139c0-1.56.8633-2.4707,2.0146-2.4707s2.0156.9111,2.0156,2.4707-.8642,2.4941-2.0156,2.4941S553.5928,202.873,553.5928,201.3139Zm2.6152,0c0-1.0557-.2881-1.3437-.6006-1.3437s-.6.288-.6,1.3437.2881,1.3672.6,1.3672S556.208,202.3691,556.208,201.3139Zm3.8613-2.4707h1.1514l-4.1738,8.0835h-1.1514Zm-.6,5.5889c0-1.5591.8633-2.4707,2.0147-2.4707s2.0146.9116,2.0146,2.4707-.8633,2.4946-2.0146,2.4946S559.47,205.9912,559.47,204.4321Zm2.6143,0c0-1.0557-.2871-1.3433-.6-1.3433s-.6.2876-.6,1.3433.2881,1.3672.6,1.3672S562.084,205.4872,562.084,204.4321Z" transform="translate(-258.9694 -166.067)"/><path class="cls-9" d="M600.3359,202.6406c0-.5157.0479-1.2832.0713-1.7989h-.0478c-.1914.4561-.4073.9117-.624,1.3672l-.6954,1.2954h4.03v1.5591h-5.9726v-1.4389l2.59-4.462h2.5674v7.604h-1.919Z" transform="translate(-258.9694 -166.067)"/><path class="cls-9" d="M604.1289,205.1113H605.76v-3.9336h-1.44v-1.2715a5.3994,5.3994,0,0,0,1.9912-.7437h1.5108v5.9488H609.19v1.6552h-5.0606Z" transform="translate(-258.9694 -166.067)"/><path class="cls-9" d="M610.0811,201.2978c0-1.56.8632-2.4707,2.0146-2.4707s2.0156.9111,2.0156,2.4707-.8642,2.4941-2.0156,2.4941S610.0811,202.8569,610.0811,201.2978Zm2.6152,0c0-1.0557-.2881-1.3438-.6006-1.3438s-.6.2881-.6,1.3438.2881,1.3672.6,1.3672S612.6963,202.353,612.6963,201.2978Zm3.8613-2.4707h1.1514l-4.1738,8.0835h-1.1514Zm-.6,5.5889c0-1.5591.8633-2.4707,2.0147-2.4707s2.0146.9116,2.0146,2.4707-.8633,2.4946-2.0146,2.4946S615.958,205.975,615.958,204.416Zm2.6143,0c0-1.0557-.2871-1.3433-.6-1.3433s-.6.2876-.6,1.3433.2881,1.3671.6,1.3671S618.5723,205.4711,618.5723,204.416Z" transform="translate(-258.9694 -166.067)"/></g><g id="instagram"><rect class="cls-2" x="45.2583" y="60.7408" width="72" height="24" rx="12"/><rect class="cls-3" x="248.6626" y="60.7408" width="10" height="24" rx="5"/><rect class="cls-4" x="119.0946" y="60.7408" width="64" height="24" rx="12"/><rect class="cls-5" x="184.5944" y="60.7408" width="40" height="24" rx="12"/><rect class="cls-6" x="225.8968" y="60.7408" width="21" height="24" rx="10.5"/><path class="cls-11" d="M261.1921,229.3519c-1.6813,1.7463-1.3372,3.6014-1.3372,9.2371,0,4.68-.8166,9.3717,3.457,10.4762a101.8411,101.8411,0,0,0,14.4912-.0018,4.5954,4.5954,0,0,0,3.4249-4.4189c.0277-.3512.0277-11.7536-.0009-12.1119a4.6023,4.6023,0,0,0-4.0346-4.5384,19.2451,19.2451,0,0,0-3.1548-.098c-9.0686.0044-11.0565-.3994-12.8456,1.4557Z" transform="translate(-258.9694 -166.067)"/><path class="cls-9" d="M270.55,230.6944c-3.2368,0-6.3105-.2879-7.4845,2.7251-.485,1.2445-.4146,2.8607-.4146,5.1748a16.486,16.486,0,0,0,.4146,5.1739c1.1713,3.0149,4.27,2.7261,7.4827,2.7261,3.0995,0,6.2953.3227,7.4836-2.7261.4859-1.2569.4145-2.849.4145-5.1739,0-3.0861.17-5.0785-1.3264-6.5743-1.5155-1.5155-3.5649-1.3256-6.5735-1.3256Zm-.7078,1.4236c6.7517-.0107,7.6111-.7613,7.1368,9.6659-.1684,3.6879-2.9765,3.2832-6.4281,3.2832-6.2936,0-6.4745-.18-6.4745-6.4763,0-6.3694.4992-6.4692,5.7658-6.4745Zm4.9243,1.3113a.9476.9476,0,1,0,.9476.9476A.9477.9477,0,0,0,274.7669,233.4293Zm-4.2165,1.1081a4.0565,4.0565,0,1,0,4.0551,4.0569,4.0567,4.0567,0,0,0-4.0551-4.0569Zm0,1.4236c3.4811,0,3.4855,5.2666,0,5.2666C267.07,241.2276,267.0649,235.961,270.55,235.961Z" transform="translate(-258.9694 -166.067)"/><path class="cls-9" d="M332.8447,237.1215H329.582v-1.727h5.4453v1.2715c-1.7509,2.0507-1.9423,3.37-2.0869,6.3325h-2.0625A9.7611,9.7611,0,0,1,332.8447,237.1215Z" transform="translate(-258.9694 -166.067)"/><path class="cls-9" d="M335.9658,241.8232c1.7988-1.6553,3.19-2.9263,3.19-3.958a.8854.8854,0,0,0-.9356-1.0073,1.8706,1.8706,0,0,0-1.2471.72l-1.1035-1.1035a3.2906,3.2906,0,0,1,2.6387-1.2232,2.4249,2.4249,0,0,1,2.6142,2.4946c0,1.2232-1.1513,2.5665-2.1826,3.6221a12.1635,12.1635,0,0,1,1.2715-.0962h1.2715v1.7271h-5.5176Z" transform="translate(-258.9694 -166.067)"/><path class="cls-9" d="M342.2783,237.53c0-1.5595.8633-2.4707,2.0147-2.4707s2.0156.9112,2.0156,2.4707-.8643,2.4942-2.0156,2.4942S342.2783,239.0888,342.2783,237.53Zm2.6153,0c0-1.0556-.2881-1.3437-.6006-1.3437s-.6.2881-.6,1.3437.288,1.3672.6,1.3672S344.8936,238.5849,344.8936,237.53Zm3.8613-2.4707h1.1514l-4.1739,8.0835h-1.1513Zm-.6,5.5889c0-1.5591.8633-2.4707,2.0146-2.4707s2.0147.9116,2.0147,2.4707-.8633,2.4946-2.0147,2.4946S348.1553,242.207,348.1553,240.6479Zm2.6142,0c0-1.0557-.2871-1.3433-.6-1.3433s-.6.2876-.6,1.3433.2881,1.3672.6,1.3672S350.77,241.7031,350.77,240.6479Z" transform="translate(-258.9694 -166.067)"/><path class="cls-9" d="M401.1787,239.3286c0-2.7588,1.5108-4.0777,3.1416-4.0777a3.3,3.3,0,0,1,2.375.9595l-1.0791,1.2231a1.7318,1.7318,0,0,0-1.1514-.5278c-.8037,0-1.415.6-1.415,2.4229,0,1.895.5869,2.2788,1.0547,2.2788.4316,0,.8154-.252.8154-1.0557,0-.7314-.4072-.9116-.8388-.9116a1.1406,1.1406,0,0,0-1.0079.72l-.0957-1.2949a2.0233,2.0233,0,0,1,1.5108-.8638,2.13,2.13,0,0,1,2.3027,2.3506,2.5047,2.5047,0,0,1-2.6387,2.5908C402.69,243.1425,401.1787,242.0869,401.1787,239.3286Z" transform="translate(-258.9694 -166.067)"/><path class="cls-9" d="M410.6807,238.8725c0-.5156.0478-1.2832.0713-1.7988h-.0479c-.1914.456-.4072.9116-.623,1.3672l-.6963,1.2954h4.03v1.5591h-5.9726v-1.439l2.59-4.4619H412.6v7.604h-1.9189Z" transform="translate(-258.9694 -166.067)"/><path class="cls-9" d="M413.9463,237.53c0-1.5595.8633-2.4707,2.0146-2.4707s2.0157.9112,2.0157,2.4707-.8643,2.4942-2.0157,2.4942S413.9463,239.0888,413.9463,237.53Zm2.6152,0c0-1.0556-.2881-1.3437-.6006-1.3437s-.6.2881-.6,1.3437.2881,1.3672.6,1.3672S416.5615,238.5849,416.5615,237.53Zm3.8614-2.4707h1.1513L417.4,243.1425H416.249Zm-.6,5.5889c0-1.5591.8633-2.4707,2.0147-2.4707s2.0146.9116,2.0146,2.4707-.8632,2.4946-2.0146,2.4946S419.8232,242.207,419.8232,240.6479Zm2.6143,0c0-1.0557-.2871-1.3433-.6-1.3433s-.6.2876-.6,1.3433.2881,1.3672.6,1.3672S422.4375,241.7031,422.4375,240.6479Z" transform="translate(-258.9694 -166.067)"/><path class="cls-9" d="M457.7012,238.8725c0-.5156.0478-1.2832.0713-1.7988h-.0479c-.1914.456-.4072.9116-.624,1.3672l-.6953,1.2954h4.03v1.5591h-5.9726v-1.439l2.59-4.4619H459.62v7.604h-1.9189Z" transform="translate(-258.9694 -166.067)"/><path class="cls-9" d="M461.11,239.1606c0-2.6026,1.1513-3.91,2.83-3.91s2.83,1.3189,2.83,3.91c0,2.6025-1.1514,3.9819-2.83,3.9819S461.11,241.7631,461.11,239.1606Zm3.7177,0c0-2.0147-.4082-2.3267-.8877-2.3267s-.8877.312-.8877,2.3267.4082,2.3984.8877,2.3984S464.8281,241.1752,464.8281,239.1606Z" transform="translate(-258.9694 -166.067)"/><path class="cls-9" d="M467.4463,237.53c0-1.5595.8633-2.4707,2.0146-2.4707s2.0157.9112,2.0157,2.4707-.8643,2.4942-2.0157,2.4942S467.4463,239.0888,467.4463,237.53Zm2.6152,0c0-1.0556-.2881-1.3437-.6006-1.3437s-.6.2881-.6,1.3437.2881,1.3672.6,1.3672S470.0615,238.5849,470.0615,237.53Zm3.8614-2.4707h1.1513L470.9,243.1425H469.749Zm-.6,5.5889c0-1.5591.8633-2.4707,2.0147-2.4707s2.0146.9116,2.0146,2.4707-.8632,2.4946-2.0146,2.4946S473.3232,242.207,473.3232,240.6479Zm2.6143,0c0-1.0557-.2871-1.3433-.6-1.3433s-.6.2876-.6,1.3433.2881,1.3672.6,1.3672S475.9375,241.7031,475.9375,240.6479Z" transform="translate(-258.9694 -166.067)"/><path class="cls-9" d="M540.8008,233.3622c1.7988-1.6552,3.19-2.9262,3.19-3.958a.8854.8854,0,0,0-.9355-1.0073,1.871,1.871,0,0,0-1.2471.72l-1.1035-1.1035a3.2907,3.2907,0,0,1,2.6387-1.2231,2.4249,2.4249,0,0,1,2.6142,2.4946c0,1.2232-1.1514,2.5664-2.1826,3.6221a12.1343,12.1343,0,0,1,1.2715-.0962h1.27v1.727h-5.5166Z" transform="translate(-258.9694 -166.067)"/><path class="cls-9" d="M547.6406,232.8823h1.6309v-3.9336H547.832v-1.2715a5.3994,5.3994,0,0,0,1.9912-.7437h1.5108v5.9488h1.3672v1.6552h-5.0606Z" transform="translate(-258.9694 -166.067)"/><path class="cls-9" d="M553.5928,229.0688c0-1.56.8633-2.4707,2.0146-2.4707s2.0156.9111,2.0156,2.4707-.8642,2.4941-2.0156,2.4941S553.5928,230.6279,553.5928,229.0688Zm2.6152,0c0-1.0557-.2881-1.3438-.6006-1.3438s-.6.2881-.6,1.3438.2881,1.3672.6,1.3672S556.208,230.124,556.208,229.0688Zm3.8613-2.4707h1.1514l-4.1738,8.0835h-1.1514Zm-.6,5.5889c0-1.5591.8633-2.4708,2.0147-2.4708s2.0146.9117,2.0146,2.4708-.8633,2.4946-2.0146,2.4946S559.47,233.746,559.47,232.187Zm2.6143,0c0-1.0557-.2871-1.3433-.6-1.3433s-.6.2876-.6,1.3433.2881,1.3671.6,1.3671S562.084,233.2421,562.084,232.187Z" transform="translate(-258.9694 -166.067)"/><path class="cls-9" d="M572.9326,247.6669h1.6309v-3.9336H573.124v-1.2714a5.3994,5.3994,0,0,0,1.9912-.7437h1.5108v5.9487h1.3672v1.6553h-5.0606Z" transform="translate(-258.9694 -166.067)"/><path class="cls-9" d="M579.0283,245.4843c0-2.6025,1.1514-3.91,2.83-3.91s2.83,1.3189,2.83,3.91c0,2.6026-1.1514,3.9819-2.83,3.9819S579.0283,248.0869,579.0283,245.4843Zm3.7178,0c0-2.0146-.4082-2.3266-.8877-2.3266s-.8877.312-.8877,2.3266.4082,2.3985.8877,2.3985S582.7461,247.499,582.7461,245.4843Z" transform="translate(-258.9694 -166.067)"/><path class="cls-9" d="M585.3643,243.8535c0-1.56.8632-2.4707,2.0146-2.4707s2.0156.9111,2.0156,2.4707-.8642,2.4941-2.0156,2.4941S585.3643,245.4125,585.3643,243.8535Zm2.6152,0c0-1.0557-.2881-1.3438-.6006-1.3438s-.6.2881-.6,1.3438.2881,1.3671.6,1.3671S587.98,244.9086,587.98,243.8535Zm3.8613-2.4707h1.1514l-4.1738,8.0834H587.667Zm-.6,5.5888c0-1.5591.8633-2.4707,2.0147-2.4707s2.0146.9116,2.0146,2.4707-.8633,2.4946-2.0146,2.4946S591.2412,248.5307,591.2412,246.9716Zm2.6143,0c0-1.0556-.2871-1.3432-.6-1.3432s-.6.2876-.6,1.3432.288,1.3672.6,1.3672S593.8555,248.0268,593.8555,246.9716Z" transform="translate(-258.9694 -166.067)"/><line class="cls-12" x1="239.1935" y1="66.0355" x2="248.2611" y2="56.9678"/><line class="cls-12" x1="281.3996" y1="68.4704" x2="248.2611" y2="56.9678"/><line class="cls-12" x1="258.6626" y1="79.7408" x2="308.2071" y2="79.7408"/></g><g id="twitter"><rect class="cls-2" x="46.5082" y="96.7131" width="32" height="24" rx="12"/><rect class="cls-3" x="172.9284" y="96.7131" width="8" height="24" rx="4"/><rect class="cls-4" x="80.0934" y="96.7131" width="40" height="24" rx="12"/><rect class="cls-5" x="121.1774" y="96.7131" width="27" height="24" rx="12"/><rect class="cls-6" x="151.0946" y="96.7131" width="19" height="24" rx="9.5"/><path class="cls-13" d="M286.84,266.2983a11.6886,11.6886,0,0,1-3.2313.8856,5.5766,5.5766,0,0,0,2.4671-3.1,11.21,11.21,0,0,1-3.5562,1.3575,5.6076,5.6076,0,0,0-9.7008,3.8348,5.7765,5.7765,0,0,0,.13,1.2789A15.8736,15.8736,0,0,1,261.39,264.69a5.6094,5.6094,0,0,0,1.7234,7.4953,5.5384,5.5384,0,0,1-2.5338-.6907v.0615a5.6339,5.6339,0,0,0,4.4931,5.51,5.5977,5.5977,0,0,1-1.47.1846,4.96,4.96,0,0,1-1.0617-.0957,5.6616,5.6616,0,0,0,5.24,3.9067,11.2685,11.2685,0,0,1-6.9533,2.3918,10.5075,10.5075,0,0,1-1.3421-.0769A15.962,15.962,0,0,0,284.05,269.9348c0-.2479-.0085-.4872-.0205-.7249A11.1851,11.1851,0,0,0,286.84,266.2983Z" transform="translate(-258.9694 -166.067)"/><path class="cls-9" d="M310.5449,278.0351l.9356-1.2954a2.3981,2.3981,0,0,0,1.5586.72c.6718,0,1.1035-.24,1.1035-.72,0-.5757-.3-.9111-1.8946-.9111v-1.44c1.2706,0,1.6543-.3359,1.6543-.8633,0-.456-.2753-.6958-.791-.6958a1.9868,1.9868,0,0,0-1.3437.6236l-1.0313-1.2471a3.7468,3.7468,0,0,1,2.4707-.9834c1.6787,0,2.7588.7676,2.7588,2.1465a1.7541,1.7541,0,0,1-1.2236,1.643v.0484a1.85,1.85,0,0,1,1.4629,1.8227c0,1.44-1.3672,2.231-2.95,2.231A3.4028,3.4028,0,0,1,310.5449,278.0351Z" transform="translate(-258.9694 -166.067)"/><path class="cls-9" d="M317.2158,277.7954c1.7988-1.6553,3.19-2.9263,3.19-3.9581a.8854.8854,0,0,0-.9356-1.0073,1.871,1.871,0,0,0-1.2471.72l-1.1035-1.1035a3.2908,3.2908,0,0,1,2.6387-1.2231,2.4249,2.4249,0,0,1,2.6142,2.4946c0,1.2232-1.1513,2.5664-2.1826,3.6221a12.1363,12.1363,0,0,1,1.2715-.0962h1.2715v1.727h-5.5176Z" transform="translate(-258.9694 -166.067)"/><path class="cls-9" d="M323.5283,273.5019c0-1.56.8633-2.4707,2.0147-2.4707s2.0156.9111,2.0156,2.4707-.8643,2.4941-2.0156,2.4941S323.5283,275.061,323.5283,273.5019Zm2.6153,0c0-1.0557-.2881-1.3438-.6006-1.3438s-.6.2881-.6,1.3438.288,1.3672.6,1.3672S326.1436,274.5571,326.1436,273.5019Zm3.8613-2.4707h1.1514l-4.1739,8.0835h-1.1513Zm-.6,5.5889c0-1.5591.8633-2.4707,2.0146-2.4707s2.0147.9116,2.0147,2.4707-.8633,2.4946-2.0147,2.4946S329.4053,278.1791,329.4053,276.62Zm2.6142,0c0-1.0557-.2871-1.3433-.6-1.3433s-.6.2876-.6,1.3433.2881,1.3671.6,1.3671S332.02,277.6752,332.02,276.62Z" transform="translate(-258.9694 -166.067)"/><path class="cls-9" d="M354.5171,274.2036c0-.5157.0478-1.2832.0713-1.7989h-.0479c-.1914.4561-.4072.9116-.624,1.3672l-.6953,1.2954h4.03v1.5591h-5.9727v-1.439l2.59-4.4619h2.5673v7.604h-1.9189Z" transform="translate(-258.9694 -166.067)"/><path class="cls-9" d="M357.9263,274.4916c0-2.6025,1.1513-3.91,2.83-3.91s2.83,1.3188,2.83,3.91c0,2.6026-1.1513,3.982-2.83,3.982S357.9263,277.0942,357.9263,274.4916Zm3.7177,0c0-2.0146-.4082-2.3266-.8877-2.3266s-.8876.312-.8876,2.3266.4082,2.3985.8876,2.3985S361.644,276.5063,361.644,274.4916Z" transform="translate(-258.9694 -166.067)"/><path class="cls-9" d="M364.2622,272.8608c0-1.56.8633-2.4707,2.0142-2.4707s2.0156.9111,2.0156,2.4707-.8643,2.4941-2.0156,2.4941S364.2622,274.42,364.2622,272.8608Zm2.6148,0c0-1.0557-.2881-1.3438-.6006-1.3438s-.5992.2881-.5992,1.3438.2881,1.3672.5992,1.3672S366.877,273.916,366.877,272.8608Zm3.8613-2.4707H371.89l-4.1738,8.0835h-1.1513Zm-.6,5.5888c0-1.559.8633-2.4707,2.0146-2.4707s2.0147.9117,2.0147,2.4707-.8633,2.4947-2.0147,2.4947S370.1387,277.538,370.1387,275.9789Zm2.6142,0c0-1.0556-.2871-1.3432-.6-1.3432s-.6.2876-.6,1.3432.2881,1.3672.6,1.3672S372.7529,277.0341,372.7529,275.9789Z" transform="translate(-258.9694 -166.067)"/><path class="cls-9" d="M382.4043,277.1542c1.7988-1.6552,3.19-2.9262,3.19-3.958a.8854.8854,0,0,0-.9355-1.0073,1.871,1.871,0,0,0-1.2471.72l-1.1035-1.1035a3.2907,3.2907,0,0,1,2.6387-1.2231,2.4249,2.4249,0,0,1,2.6142,2.4946c0,1.2231-1.1513,2.5664-2.1826,3.6221a12.1363,12.1363,0,0,1,1.2715-.0962h1.2705v1.727h-5.5166Z" transform="translate(-258.9694 -166.067)"/><path class="cls-9" d="M392.2422,272.4526H388.98v-1.7271h5.4453v1.2715c-1.751,2.0508-1.9434,3.37-2.0869,6.3325h-2.0625A9.76,9.76,0,0,1,392.2422,272.4526Z" transform="translate(-258.9694 -166.067)"/><path class="cls-9" d="M395.1963,272.8608c0-1.56.8633-2.4707,2.0146-2.4707s2.0157.9111,2.0157,2.4707-.8643,2.4941-2.0157,2.4941S395.1963,274.42,395.1963,272.8608Zm2.6152,0c0-1.0557-.2881-1.3438-.6006-1.3438s-.6.2881-.6,1.3438.2881,1.3672.6,1.3672S397.8115,273.916,397.8115,272.8608Zm3.8614-2.4707h1.1513l-4.1738,8.0835H397.499Zm-.6,5.5888c0-1.559.8633-2.4707,2.0147-2.4707s2.0146.9117,2.0146,2.4707-.8632,2.4947-2.0146,2.4947S401.0732,277.538,401.0732,275.9789Zm2.6143,0c0-1.0556-.2871-1.3432-.6-1.3432s-.6.2876-.6,1.3432.2881,1.3672.6,1.3672S403.6875,277.0341,403.6875,275.9789Z" transform="translate(-258.9694 -166.067)"/><path class="cls-9" d="M494.6963,283.664a1.983,1.983,0,0,1,1.2471-1.7993v-.0479a2.1908,2.1908,0,0,1-1.0079-1.7988c0-1.3433,1.0557-2.1587,2.543-2.1587a2.1188,2.1188,0,0,1,2.375,2.1109,1.9307,1.9307,0,0,1-.9717,1.5947v.0483a2.17,2.17,0,0,1,1.3077,2.003c0,1.2231-1.1163,2.1347-2.7832,2.1347C495.8594,285.7509,494.6963,284.9111,494.6963,283.664Zm3.5859-.12c0-.5518-.5273-.7676-1.4277-1.1514a1.6419,1.6419,0,0,0-.3955,1.0318.91.91,0,0,0,.9961.9111A.7342.7342,0,0,0,498.2822,283.5439Zm-.084-3.43a.74.74,0,0,0-.7675-.8393.6616.6616,0,0,0-.6953.7436c0,.5039.4072.7676,1.1269,1.0552A1.6647,1.6647,0,0,0,498.1982,280.1137Z" transform="translate(-258.9694 -166.067)"/><path class="cls-9" d="M500.9355,280.1381c0-1.56.8633-2.4707,2.0147-2.4707s2.0156.9112,2.0156,2.4707-.8642,2.4942-2.0156,2.4942S500.9355,281.6972,500.9355,280.1381Zm2.6153,0c0-1.0556-.2881-1.3437-.6006-1.3437s-.6.2881-.6,1.3437.2881,1.3672.6,1.3672S503.5508,281.1933,503.5508,280.1381Zm3.8613-2.4707h1.1514l-4.1739,8.0835h-1.1513Zm-.6,5.5889c0-1.5591.8633-2.4707,2.0146-2.4707s2.0147.9116,2.0147,2.4707-.8633,2.4946-2.0147,2.4946S506.8125,284.8154,506.8125,283.2563Zm2.6143,0c0-1.0557-.2872-1.3433-.6-1.3433s-.6.2876-.6,1.3433.2881,1.3672.6,1.3672S509.4268,284.3115,509.4268,283.2563Z" transform="translate(-258.9694 -166.067)"/><path class="cls-9" d="M469.333,270.68h1.6309V266.746h-1.44v-1.2714a5.3994,5.3994,0,0,0,1.9912-.7437h1.5108V270.68h1.3672v1.6553H469.333Z" transform="translate(-258.9694 -166.067)"/><path class="cls-9" d="M475.5,271.52l1.08-1.2237a1.7248,1.7248,0,0,0,1.1513.5279c.8155,0,1.4151-.6,1.4151-2.4224,0-1.895-.5879-2.2788-1.0557-2.2788-.4316,0-.8154.2515-.8154,1.0552,0,.7314.4072.9116.84.9116a1.1386,1.1386,0,0,0,1.0069-.72l.0957,1.2954a2.0229,2.0229,0,0,1-1.5108.8633,2.13,2.13,0,0,1-2.3027-2.3506,2.5046,2.5046,0,0,1,2.6387-2.59c1.4629,0,2.9746,1.0552,2.9746,3.814s-1.5117,4.0776-3.1426,4.0776A3.3036,3.3036,0,0,1,475.5,271.52Z" transform="translate(-258.9694 -166.067)"/><path class="cls-9" d="M481.7646,266.8662c0-1.56.8633-2.4708,2.0147-2.4708s2.0156.9112,2.0156,2.4708-.8642,2.4941-2.0156,2.4941S481.7646,268.4252,481.7646,266.8662Zm2.6153,0c0-1.0557-.2881-1.3438-.6006-1.3438s-.6.2881-.6,1.3438.2881,1.3671.6,1.3671S484.38,267.9213,484.38,266.8662Zm3.8613-2.4708h1.1514l-4.1738,8.0835h-1.1514Zm-.6,5.5889c0-1.5591.8633-2.4707,2.0147-2.4707s2.0146.9116,2.0146,2.4707-.8633,2.4946-2.0146,2.4946S487.6416,271.5434,487.6416,269.9843Zm2.6143,0c0-1.0556-.2871-1.3432-.6-1.3432s-.6.2876-.6,1.3432.2881,1.3672.6,1.3672S490.2559,271.04,490.2559,269.9843Z" transform="translate(-258.9694 -166.067)"/><line class="cls-12" x1="164.6104" y1="100.3123" x2="173.6781" y2="91.2446"/><line class="cls-12" x1="206.8166" y1="102.7471" x2="173.6781" y2="91.2446"/><line class="cls-12" x1="178.8222" y1="116.6637" x2="228.3667" y2="116.6637"/></g><g id="linkedln"><rect class="cls-4" x="44.7607" y="132.4765" width="29" height="24" rx="12"/><rect class="cls-5" x="77.2582" y="132.4765" width="33" height="24" rx="12"/><rect class="cls-6" x="111.8699" y="132.4765" width="24" height="24" rx="12"/><rect class="cls-3" x="138.7237" y="132.4765" width="9" height="24" rx="4.5"/><path class="cls-14" d="M280.0942,298.9791H261.07a2.101,2.101,0,0,0-2.1009,2.101v19.0238a2.1009,2.1009,0,0,0,2.1009,2.101h19.0238a2.1009,2.1009,0,0,0,2.101-2.101V301.08A2.101,2.101,0,0,0,280.0942,298.9791Zm-13.9378,20.0547a.6114.6114,0,0,1-.6114.6114h-2.6026a.6114.6114,0,0,1-.6114-.6114v-10.91a.6114.6114,0,0,1,.6114-.6114h2.6026a.6114.6114,0,0,1,.6114.6114Zm-1.9127-12.55a2.4726,2.4726,0,1,1,2.4725-2.4726A2.4726,2.4726,0,0,1,264.2437,306.4839Zm15.5139,12.5991a.5622.5622,0,0,1-.5621.5622h-2.7928a.5622.5622,0,0,1-.5622-.5622v-5.1174c0-.7634.2239-3.3453-1.995-3.3453-1.7212,0-2.07,1.7672-2.14,2.56v5.9024a.5622.5622,0,0,1-.5622.5622h-2.7011a.5622.5622,0,0,1-.5622-.5622V308.0745a.5622.5622,0,0,1,.5622-.5622h2.7011a.5623.5623,0,0,1,.5622.5622v.9518a3.834,3.834,0,0,1,3.6061-1.6971c4.472,0,4.4464,4.178,4.4464,6.4736v5.28Z" transform="translate(-258.9694 -166.067)"/><path class="cls-9" d="M308.05,312.4037c1.7988-1.6552,3.19-2.9262,3.19-3.958a.8854.8854,0,0,0-.9355-1.0073,1.871,1.871,0,0,0-1.2471.72l-1.1035-1.1035a3.2907,3.2907,0,0,1,2.6387-1.2231,2.4249,2.4249,0,0,1,2.6142,2.4946c0,1.2232-1.1513,2.5664-2.1826,3.6221a12.1343,12.1343,0,0,1,1.2715-.0962h1.27v1.727H308.05Z" transform="translate(-258.9694 -166.067)"/><path class="cls-9" d="M314.5776,312.7636l1.08-1.2236a1.7256,1.7256,0,0,0,1.1514.5278c.8154,0,1.415-.6,1.415-2.4224,0-1.895-.5879-2.2788-1.0556-2.2788-.4317,0-.8155.2515-.8155,1.0552,0,.7315.4073.9116.84.9116a1.1385,1.1385,0,0,0,1.0068-.72l.0957,1.2954a2.0225,2.0225,0,0,1-1.5107.8633,2.13,2.13,0,0,1-2.3028-2.3506,2.5047,2.5047,0,0,1,2.6387-2.59c1.4629,0,2.9746,1.0552,2.9746,3.8139s-1.5117,4.0777-3.1426,4.0777A3.3037,3.3037,0,0,1,314.5776,312.7636Z" transform="translate(-258.9694 -166.067)"/><path class="cls-9" d="M320.8423,308.11c0-1.56.8633-2.4707,2.0146-2.4707s2.0157.9111,2.0157,2.4707-.8643,2.4941-2.0157,2.4941S320.8423,309.6694,320.8423,308.11Zm2.6152,0c0-1.0557-.2881-1.3438-.6006-1.3438s-.6.2881-.6,1.3438.2881,1.3672.6,1.3672S323.4575,309.1655,323.4575,308.11Zm3.8613-2.4707H328.47l-4.1738,8.0835H323.145Zm-.6,5.5889c0-1.5591.8633-2.4707,2.0147-2.4707s2.0146.9116,2.0146,2.4707-.8632,2.4946-2.0146,2.4946S326.7192,312.7875,326.7192,311.2285Zm2.6143,0c0-1.0557-.2871-1.3433-.6-1.3433s-.6.2876-.6,1.3433.2881,1.3671.6,1.3671S329.3335,312.2836,329.3335,311.2285Z" transform="translate(-258.9694 -166.067)"/><path class="cls-9" d="M342.3564,312.6435l.9356-1.2954a2.3983,2.3983,0,0,0,1.5586.72c.6719,0,1.1035-.24,1.1035-.72,0-.5757-.3-.9111-1.8945-.9111v-1.44c1.2705,0,1.6543-.3359,1.6543-.8633,0-.456-.2754-.6958-.791-.6958a1.987,1.987,0,0,0-1.3438.6236l-1.0312-1.2471a3.7464,3.7464,0,0,1,2.4707-.9834c1.6787,0,2.7587.7676,2.7587,2.1465a1.7541,1.7541,0,0,1-1.2236,1.643v.0484a1.85,1.85,0,0,1,1.4629,1.8227c0,1.44-1.3672,2.231-2.95,2.231A3.403,3.403,0,0,1,342.3564,312.6435Z" transform="translate(-258.9694 -166.067)"/><path class="cls-9" d="M348.8359,312.6435l.9356-1.2954a2.3983,2.3983,0,0,0,1.5586.72c.6719,0,1.1035-.24,1.1035-.72,0-.5757-.3-.9111-1.8945-.9111v-1.44c1.27,0,1.6543-.3359,1.6543-.8633,0-.456-.2754-.6958-.7911-.6958a1.987,1.987,0,0,0-1.3437.6236l-1.0313-1.2471a3.7468,3.7468,0,0,1,2.4707-.9834c1.6788,0,2.7588.7676,2.7588,2.1465a1.7541,1.7541,0,0,1-1.2236,1.643v.0484a1.85,1.85,0,0,1,1.4629,1.8227c0,1.44-1.3672,2.231-2.95,2.231A3.4028,3.4028,0,0,1,348.8359,312.6435Z" transform="translate(-258.9694 -166.067)"/><path class="cls-9" d="M355.34,308.11c0-1.56.8633-2.4707,2.0147-2.4707s2.0156.9111,2.0156,2.4707-.8642,2.4941-2.0156,2.4941S355.34,309.6694,355.34,308.11Zm2.6153,0c0-1.0557-.2881-1.3438-.6006-1.3438s-.6.2881-.6,1.3438.2881,1.3672.6,1.3672S357.9551,309.1655,357.9551,308.11Zm3.8613-2.4707h1.1514l-4.1739,8.0835h-1.1513Zm-.6,5.5889c0-1.5591.8633-2.4707,2.0146-2.4707s2.0147.9116,2.0147,2.4707-.8633,2.4946-2.0147,2.4946S361.2168,312.7875,361.2168,311.2285Zm2.6143,0c0-1.0557-.2872-1.3433-.6-1.3433s-.6.2876-.6,1.3433.2881,1.3671.6,1.3671S363.8311,312.2836,363.8311,311.2285Z" transform="translate(-258.9694 -166.067)"/><path class="cls-9" d="M431.6113,307.3437c1.7989-1.6553,3.19-2.9263,3.19-3.958a.8854.8854,0,0,0-.9356-1.0073,1.8706,1.8706,0,0,0-1.2471.72l-1.1035-1.1035a3.2906,3.2906,0,0,1,2.6387-1.2232,2.425,2.425,0,0,1,2.6143,2.4947c0,1.2231-1.1514,2.5664-2.1827,3.622a12.1635,12.1635,0,0,1,1.2715-.0962h1.2705v1.7271h-5.5166Z" transform="translate(-258.9694 -166.067)"/><path class="cls-9" d="M441.1377,304.393c0-.5156.0478-1.2832.0713-1.7988h-.0479c-.1914.456-.4072.9116-.623,1.3672l-.6963,1.2954h4.03v1.5591h-5.9727v-1.439l2.59-4.4619h2.5673v7.604h-1.9189Z" transform="translate(-258.9694 -166.067)"/><path class="cls-9" d="M444.4033,303.05c0-1.56.8633-2.4707,2.0147-2.4707s2.0156.9112,2.0156,2.4707-.8643,2.4942-2.0156,2.4942S444.4033,304.6093,444.4033,303.05Zm2.6153,0c0-1.0556-.2881-1.3437-.6006-1.3437s-.6.2881-.6,1.3437.288,1.3672.6,1.3672S447.0186,304.1054,447.0186,303.05ZM450.88,300.58h1.1514l-4.1739,8.0835h-1.1513Zm-.6,5.5889c0-1.5591.8633-2.4707,2.0146-2.4707s2.0147.9116,2.0147,2.4707-.8633,2.4946-2.0147,2.4946S450.28,307.7275,450.28,306.1684Zm2.6142,0c0-1.0557-.2871-1.3433-.6-1.3433s-.6.2876-.6,1.3433.2881,1.3672.6,1.3672S452.8945,307.2236,452.8945,306.1684Z" transform="translate(-258.9694 -166.067)"/><path class="cls-9" d="M457.4258,320.3212l1.08-1.2236a1.7247,1.7247,0,0,0,1.1513.5278c.8155,0,1.4151-.6,1.4151-2.4223,0-1.8951-.5879-2.2788-1.0557-2.2788-.4316,0-.8154.2514-.8154,1.0551,0,.7315.4072.9117.84.9117a1.1385,1.1385,0,0,0,1.0069-.72l.0957,1.2954a2.0225,2.0225,0,0,1-1.5108.8633,2.13,2.13,0,0,1-2.3027-2.3506,2.5046,2.5046,0,0,1,2.6387-2.59c1.4628,0,2.9746,1.0552,2.9746,3.814s-1.5118,4.0776-3.1426,4.0776A3.3037,3.3037,0,0,1,457.4258,320.3212Z" transform="translate(-258.9694 -166.067)"/><path class="cls-9" d="M463.69,315.6679c0-1.56.8632-2.4707,2.0146-2.4707s2.0156.9111,2.0156,2.4707-.8642,2.4942-2.0156,2.4942S463.69,317.227,463.69,315.6679Zm2.6152,0c0-1.0557-.2881-1.3437-.6006-1.3437s-.6.288-.6,1.3437.2881,1.3672.6,1.3672S466.3047,316.7231,466.3047,315.6679Zm3.8613-2.4707h1.1514l-4.1738,8.0835h-1.1514Zm-.6,5.5889c0-1.5591.8633-2.4707,2.0147-2.4707s2.0146.9116,2.0146,2.4707-.8633,2.4946-2.0146,2.4946S469.5664,320.3452,469.5664,318.7861Zm2.6143,0c0-1.0557-.2871-1.3433-.6-1.3433s-.6.2876-.6,1.3433.2881,1.3672.6,1.3672S472.1807,319.8412,472.1807,318.7861Z" transform="translate(-258.9694 -166.067)"/><line class="cls-12" x1="129.0744" y1="136.0616" x2="138.1421" y2="126.994"/><line class="cls-12" x1="171.2805" y1="138.4965" x2="138.1421" y2="126.994"/><line class="cls-12" x1="146.2157" y1="152.4814" x2="195.7602" y2="152.4814"/></g><g id="snapchat"><rect class="cls-2" x="44.3434" y="168.4695" width="69" height="24" rx="12"/><rect class="cls-3" x="226.6646" y="168.4695" width="3" height="24" rx="1.5"/><rect class="cls-5" x="183.2453" y="168.4157" width="26" height="24" rx="12"/><rect class="cls-6" x="211.2455" y="168.4157" width="10" height="24" rx="5"/><rect class="cls-4" x="114.0519" y="168.4695" width="68" height="24" rx="12"/><path class="cls-15" d="M282.6846,353.0392a5.6892,5.6892,0,0,1-5.669,5.6691H265.7137a5.6893,5.6893,0,0,1-5.6691-5.6691V341.7374a5.6893,5.6893,0,0,1,5.6691-5.6691h11.3019a5.6892,5.6892,0,0,1,5.669,5.6691Z" transform="translate(-258.9694 -166.067)"/><path class="cls-9" d="M271.31,340.94a3.9417,3.9417,0,0,0-2.427.797,3.8356,3.8356,0,0,0-1.1773,1.5576s-.0362,0-.0362.0181a4.8612,4.8612,0,0,0-.2355,1.8836h0a2.4094,2.4094,0,0,1,.0725,1.2317.1823.1823,0,0,0,.0181.0543,3.25,3.25,0,0,1-.5977.0181h0a2.0917,2.0917,0,0,1-.4709-.163.0177.0177,0,0,0-.0181-.0181.5653.5653,0,0,0-.4528.0906h0a.5018.5018,0,0,0-.2536.38v.0362a.4169.4169,0,0,0,.163.2536,1.741,1.741,0,0,1,.163.1268v-.0181a1.9486,1.9486,0,0,0,.96.38h0c.1992.1811.38.2536.4165.4347a.9586.9586,0,0,1-.1811.7607h0a4.61,4.61,0,0,1-1.4489,1.6663,3.812,3.812,0,0,1-1.0686.489h-.0182a.76.76,0,0,0-.38.2174c0,.0181-.0181.0181-.0181.0362a.3586.3586,0,0,0,.0543.3079.3345.3345,0,0,0,.163.1268h0a4.338,4.338,0,0,0,.9962.3441h0a4.4436,4.4436,0,0,1,.6158.1449.4569.4569,0,0,0,.0724.163c.0544.1811.0906.38.1449.5977a.2187.2187,0,0,0,.1268.1268.355.355,0,0,0,.2355-.0181h.0181a3.7965,3.7965,0,0,1,1.5576-.0543h0a5.7621,5.7621,0,0,1,1.449.7969h-.0181a2.4536,2.4536,0,0,0,1.25.4347h0l-.0181.0362c.3441.0181.6339.0181.96.0181h0c.2717-.1811.5434-.163.7788-.3079a.0177.0177,0,0,1,.0181-.0181,16.8049,16.8049,0,0,1,1.5215-.9056h0a2.88,2.88,0,0,1,.6158-.0725h0a7.6628,7.6628,0,0,1,1.2859.0725h.0362a.2231.2231,0,0,0,.1449-.0725.1168.1168,0,0,0,.0363-.09c.0181-.0362.0181-.0725,0-.0362,0-.0181.0181-.0181.0181-.0363a1.716,1.716,0,0,1,.2535-.6339.3091.3091,0,0,1,.2717-.0724h.0181a4.4,4.4,0,0,0,1.0143-.29h.0181a1.02,1.02,0,0,0,.4166-.2717h0a.2822.2822,0,0,0-.0906-.4166h-.09a1.5932,1.5932,0,0,0-.4166-.163h.0181a3.8387,3.8387,0,0,1-1.8293-1.34,5.1383,5.1383,0,0,1-.6339-1.1048h0a.5952.5952,0,0,1,.0181-.4709h0a1.32,1.32,0,0,1,.6339-.3985h0a2.3755,2.3755,0,0,0,.8513-.4347h0a.65.65,0,0,0,.0905-.163c.0363-.0724.1449-.1811-.0181-.29h0a.3064.3064,0,0,0-.2354-.326h-.5072a3.6138,3.6138,0,0,1-.4528.1268h0a1.5067,1.5067,0,0,1-.5071-.0543v-.1268h0c-.0181-.3623-.0543-.6158-.0543-.96h0a11.1827,11.1827,0,0,0,0-1.5576h.0181a3.52,3.52,0,0,0-1.449-2.1915,5.809,5.809,0,0,0-1.775-.67h0C271.7269,340.9223,271.51,340.94,271.31,340.94Z" transform="translate(-258.9694 -166.067)"/><path class="cls-16" d="M277.0156,358.8894H265.7137a5.8592,5.8592,0,0,1-5.85-5.85V341.7374a5.8592,5.8592,0,0,1,5.85-5.85h11.3019a5.8592,5.8592,0,0,1,5.85,5.85v11.3018A5.8592,5.8592,0,0,1,277.0156,358.8894Zm-11.3019-22.64a5.4959,5.4959,0,0,0-5.4879,5.488v11.3018a5.4959,5.4959,0,0,0,5.4879,5.488h11.3019a5.4959,5.4959,0,0,0,5.4879-5.488V341.7374a5.4959,5.4959,0,0,0-5.4879-5.488Z" transform="translate(-258.9694 -166.067)"/><path class="cls-16" d="M276.6171,357.8027H266.1122a5.2308,5.2308,0,0,1-5.162-5.1619v-10.505a5.2187,5.2187,0,0,1,5.162-5.1619h10.4687a.1811.1811,0,0,1,0,.3622H266.1122a4.8554,4.8554,0,0,0-4.8,4.8v10.505a4.8675,4.8675,0,0,0,4.8,4.8h10.5049a4.8675,4.8675,0,0,0,4.8-4.8v-5.0714a.1811.1811,0,1,1,.3622,0v5.0714A5.2186,5.2186,0,0,1,276.6171,357.8027Z" transform="translate(-258.9694 -166.067)"/><path class="cls-16" d="M280.0946,338.8394a.1647.1647,0,0,1-.1268-.0543,5.2125,5.2125,0,0,0-3.5318-1.449.1811.1811,0,0,1,0-.3622,5.5345,5.5345,0,0,1,3.7854,1.5576.175.175,0,0,1,0,.2536A.141.141,0,0,1,280.0946,338.8394Z" transform="translate(-258.9694 -166.067)"/><path class="cls-16" d="M281.5979,346.4827a.1711.1711,0,0,1-.1811-.1811V343.621a.1811.1811,0,1,1,.3622,0v2.6806A.1711.1711,0,0,1,281.5979,346.4827Z" transform="translate(-258.9694 -166.067)"/><path class="cls-16" d="M271.4552,354.47h-.1811a3.5371,3.5371,0,0,1-2.0829-.7969,2.5539,2.5539,0,0,0-.9237-.4891,2.31,2.31,0,0,0-.5071-.0362,3.3286,3.3286,0,0,0-.6883.0725h-.0181a2.1752,2.1752,0,0,1-.3623.0543.5606.5606,0,0,1-.5614-.4166,2.468,2.468,0,0,1-.0725-.3079l-.0181-.0362a.6438.6438,0,0,1-.0362-.1811,4.94,4.94,0,0,1-1.34-.3623,1.0894,1.0894,0,0,1-.58-.5071v-.0181a.7713.7713,0,0,1-.0362-.1992.496.496,0,0,1,.4347-.5253,3.0392,3.0392,0,0,0,1.1592-.4528,3.86,3.86,0,0,0,.8331-.7245,4.4,4.4,0,0,0,.6883-1.0686v-.0181a.0177.0177,0,0,1,.0181-.0181.5236.5236,0,0,0,.0724-.326c-.0724-.163-.4528-.29-.652-.3623l-.0543-.0181c-.0725-.0181-.1268-.0362-.1812-.0543a2.2659,2.2659,0,0,1-.5977-.3441.6913.6913,0,0,1-.2535-.67.7731.7731,0,0,1,.3984-.5071.9574.9574,0,0,1,.8513-.0725,1.2272,1.2272,0,0,0,.5615.1449h.0362a.502.502,0,0,0-.0181-.163v-.0181a7.1169,7.1169,0,0,1,.1992-2.9522,4.5317,4.5317,0,0,1,.9056-1.3041,3.681,3.681,0,0,1,1.0867-.7245,4.4331,4.4331,0,0,1,1.7026-.3622h.2716a4.4331,4.4331,0,0,1,1.7026.3622,4.1664,4.1664,0,0,1,1.1048.7245,4.2483,4.2483,0,0,1,.9237,1.3041,7.1169,7.1169,0,0,1,.1992,2.9522v.0543a.2686.2686,0,0,1-.0181.1268h.0181a2.59,2.59,0,0,0,.5253-.1449.7881.7881,0,0,1,.3622-.0724.8916.8916,0,0,1,.38.0724.78.78,0,0,1,.5615.7064.7447.7447,0,0,1-.2174.5253,1.7269,1.7269,0,0,1-.6339.38.8429.8429,0,0,1-.163.0543h-.0725c-.1992.0725-.5795.1812-.652.3623-.0362.0724-.0181.1811.0543.3441a.0631.0631,0,0,0,.0182.0362,3.9281,3.9281,0,0,0,2.6624,2.2278.5023.5023,0,0,1,.4347.5434.77.77,0,0,1-.0362.1992,1.022,1.022,0,0,1-.58.5071,4.94,4.94,0,0,1-1.34.3623.5361.5361,0,0,0-.0362.1811l-.0181.0906a1.034,1.034,0,0,1-.0725.2535.53.53,0,0,1-.5433.3985,3.3206,3.3206,0,0,1-.38-.0362,3.5263,3.5263,0,0,0-.7064-.0725,4.4549,4.4549,0,0,0-.5071.0362,2.4185,2.4185,0,0,0-.9237.4891A3.5268,3.5268,0,0,1,271.4552,354.47Zm-3.6948-1.6844a2.8132,2.8132,0,0,1,.5614.0543,2.8505,2.8505,0,0,1,1.0686.5434,3.0678,3.0678,0,0,0,1.8837.7426h.163a3.0757,3.0757,0,0,0,1.8655-.7426,2.5655,2.5655,0,0,1,1.0868-.5434,3.1842,3.1842,0,0,1,1.34.0362,1.1631,1.1631,0,0,0,.29.0363.1833.1833,0,0,0,.1993-.1449c.0181-.0906.0362-.163.0543-.2355l.0181-.0906c.0362-.163.0725-.2716.0906-.3441a.188.188,0,0,1,.1449-.1087,5.3629,5.3629,0,0,0,1.34-.3441.6832.6832,0,0,0,.3984-.326.1358.1358,0,0,0,.0181-.0906.1739.1739,0,0,0-.1268-.163,4.31,4.31,0,0,1-2.9341-2.4451c0-.0181-.0181-.0181-.0181-.0362a.743.743,0,0,1-.0725-.6339c.1268-.326.58-.4709.8875-.5615l.0725-.0181a.46.46,0,0,1,.1268-.0362,1.4389,1.4389,0,0,0,.5071-.3079.3908.3908,0,0,0,.1268-.2536c0-.1449-.1268-.29-.3441-.3623a.5793.5793,0,0,0-.2536-.0543.5853.5853,0,0,0-.2174.0362,1.6161,1.6161,0,0,1-.652.1812h-.0362a.761.761,0,0,1-.2536-.0544.1993.1993,0,0,1-.1087-.1811v-.0906a.8085.8085,0,0,1,.0182-.1992v-.0543a7.1575,7.1575,0,0,0-.163-2.7712,3.8228,3.8228,0,0,0-.8332-1.1954,3.3894,3.3894,0,0,0-.9962-.652,3.8648,3.8648,0,0,0-1.5576-.326h-.2717a3.8118,3.8118,0,0,0-1.5576.326,3.3894,3.3894,0,0,0-.9962.652,3.8209,3.8209,0,0,0-.8331,1.1954,6.6235,6.6235,0,0,0-.163,2.7893v.0181c0,.1087.0181.2173.0181.326a.199.199,0,0,1-.1087.1811,1.24,1.24,0,0,1-1.0143-.1268.6414.6414,0,0,0-.5071.0544.3928.3928,0,0,0-.2173.2717.3409.3409,0,0,0,.1449.326,1.9553,1.9553,0,0,0,.489.2717,1.2424,1.2424,0,0,0,.1449.0543l.0543.0181c.3079.0906.7426.2355.8875.5615a.7041.7041,0,0,1-.0724.6158v.0181a4.6354,4.6354,0,0,1-.7426,1.1592,3.7595,3.7595,0,0,1-2.1916,1.304.1587.1587,0,0,0-.1268.163.1633.1633,0,0,0,.0181.0906h0a.7419.7419,0,0,0,.3985.3079,4.8263,4.8263,0,0,0,1.3584.3441.1363.1363,0,0,1,.1268.0906,1.9593,1.9593,0,0,1,.1087.3441l.0181.0544a2.2575,2.2575,0,0,0,.0724.29c.0362.1086.0906.1448.2174.1448a1.5874,1.5874,0,0,0,.29-.0362h.0181A5.3473,5.3473,0,0,1,267.76,352.7857Z" transform="translate(-258.9694 -166.067)"/><path class="cls-9" d="M329.5107,346.8725c0-2.7588,1.5108-4.0776,3.1416-4.0776a3.3,3.3,0,0,1,2.375.9594l-1.0791,1.2232a1.7314,1.7314,0,0,0-1.1513-.5279c-.8037,0-1.4151.6-1.4151,2.4229,0,1.895.587,2.2788,1.0547,2.2788.4317,0,.8155-.2519.8155-1.0557,0-.7314-.4073-.9116-.8389-.9116a1.14,1.14,0,0,0-1.0078.72l-.0957-1.2949a2.0232,2.0232,0,0,1,1.5107-.8637,2.13,2.13,0,0,1,2.3027,2.3505,2.5047,2.5047,0,0,1-2.6386,2.5909C331.0215,350.6865,329.5107,349.6308,329.5107,346.8725Z" transform="translate(-258.9694 -166.067)"/><path class="cls-9" d="M336.0137,349.727l1.08-1.2236a1.7252,1.7252,0,0,0,1.1513.5278c.8154,0,1.4151-.6,1.4151-2.4224,0-1.895-.5879-2.2788-1.0557-2.2788-.4316,0-.8154.2515-.8154,1.0552,0,.7314.4072.9116.84.9116a1.1383,1.1383,0,0,0,1.0068-.72l.0957,1.2954a2.0222,2.0222,0,0,1-1.5107.8633,2.13,2.13,0,0,1-2.3027-2.3506,2.5045,2.5045,0,0,1,2.6386-2.59c1.4629,0,2.9747,1.0551,2.9747,3.8139s-1.5118,4.0777-3.1426,4.0777A3.3037,3.3037,0,0,1,336.0137,349.727Z" transform="translate(-258.9694 -166.067)"/><path class="cls-9" d="M342.2783,345.0737c0-1.56.8633-2.4707,2.0147-2.4707s2.0156.9111,2.0156,2.4707-.8643,2.4941-2.0156,2.4941S342.2783,346.6328,342.2783,345.0737Zm2.6153,0c0-1.0557-.2881-1.3438-.6006-1.3438s-.6.2881-.6,1.3438.288,1.3672.6,1.3672S344.8936,346.1288,344.8936,345.0737Zm3.8613-2.4707h1.1514l-4.1739,8.0835h-1.1513Zm-.6,5.5888c0-1.559.8633-2.4707,2.0146-2.4707s2.0147.9117,2.0147,2.4707-.8633,2.4947-2.0147,2.4947S348.1553,349.7509,348.1553,348.1918Zm2.6142,0c0-1.0556-.2871-1.3432-.6-1.3432s-.6.2876-.6,1.3432.2881,1.3672.6,1.3672S350.77,349.247,350.77,348.1918Z" transform="translate(-258.9694 -166.067)"/><path class="cls-9" d="M401.7188,346.8725c0-2.7588,1.5107-4.0776,3.1416-4.0776a3.3,3.3,0,0,1,2.375.9594l-1.0791,1.2232a1.7319,1.7319,0,0,0-1.1514-.5279c-.8037,0-1.4151.6-1.4151,2.4229,0,1.895.587,2.2788,1.0547,2.2788.4317,0,.8155-.2519.8155-1.0557,0-.7314-.4073-.9116-.8389-.9116a1.14,1.14,0,0,0-1.0078.72l-.0957-1.2949a2.0234,2.0234,0,0,1,1.5107-.8637,2.13,2.13,0,0,1,2.3028,2.3505,2.5048,2.5048,0,0,1-2.6387,2.5909C403.23,350.6865,401.7188,349.6308,401.7188,346.8725Z" transform="translate(-258.9694 -166.067)"/><path class="cls-9" d="M408.2461,348.6a1.9831,1.9831,0,0,1,1.2471-1.7994v-.0478a2.1908,2.1908,0,0,1-1.0078-1.7988c0-1.3433,1.0556-2.1587,2.5429-2.1587a2.1188,2.1188,0,0,1,2.375,2.1108,1.9306,1.9306,0,0,1-.9717,1.5947v.0484a2.17,2.17,0,0,1,1.3077,2.0029c0,1.2231-1.1163,2.1348-2.7832,2.1348C409.4092,350.6865,408.2461,349.8466,408.2461,348.6Zm3.5859-.12c0-.5517-.5273-.7675-1.4277-1.1513a1.6414,1.6414,0,0,0-.3955,1.0317.91.91,0,0,0,.9951.9111A.7345.7345,0,0,0,411.832,348.4794Zm-.084-3.43a.74.74,0,0,0-.7675-.8394.6617.6617,0,0,0-.6953.7437c0,.5039.4072.7675,1.1269,1.0551A1.6644,1.6644,0,0,0,411.748,345.0493Z" transform="translate(-258.9694 -166.067)"/><path class="cls-9" d="M414.4863,345.0737c0-1.56.8633-2.4707,2.0147-2.4707s2.0156.9111,2.0156,2.4707-.8643,2.4941-2.0156,2.4941S414.4863,346.6328,414.4863,345.0737Zm2.6153,0c0-1.0557-.2881-1.3438-.6006-1.3438s-.6.2881-.6,1.3438.2881,1.3672.6,1.3672S417.1016,346.1288,417.1016,345.0737Zm3.8613-2.4707h1.1514l-4.1739,8.0835h-1.1513Zm-.6,5.5888c0-1.559.8633-2.4707,2.0146-2.4707s2.0147.9117,2.0147,2.4707-.8633,2.4947-2.0147,2.4947S420.3633,349.7509,420.3633,348.1918Zm2.6142,0c0-1.0556-.2871-1.3432-.6-1.3432s-.6.2876-.6,1.3432.2881,1.3672.6,1.3672S422.9775,349.247,422.9775,348.1918Z" transform="translate(-258.9694 -166.067)"/><path class="cls-9" d="M511.0713,337.312c1.7988-1.6553,3.19-2.9263,3.19-3.9581a.8854.8854,0,0,0-.9355-1.0073,1.871,1.871,0,0,0-1.2471.72l-1.1035-1.1035a3.2907,3.2907,0,0,1,2.6387-1.2231,2.4249,2.4249,0,0,1,2.6142,2.4946c0,1.2232-1.1514,2.5664-2.1826,3.6221a12.1343,12.1343,0,0,1,1.2715-.0962h1.27v1.727h-5.5166Z" transform="translate(-258.9694 -166.067)"/><path class="cls-9" d="M517.5752,334.8173c0-2.7588,1.5107-4.0776,3.1416-4.0776a3.3,3.3,0,0,1,2.375.9595l-1.0791,1.2231a1.7313,1.7313,0,0,0-1.1514-.5278c-.8037,0-1.415.6-1.415,2.4228,0,1.895.5869,2.2788,1.0547,2.2788.4316,0,.8154-.2519.8154-1.0556,0-.7315-.4072-.9117-.8389-.9117a1.1406,1.1406,0,0,0-1.0078.72l-.0957-1.2949a2.0233,2.0233,0,0,1,1.5108-.8638,2.13,2.13,0,0,1,2.3027,2.3506,2.5047,2.5047,0,0,1-2.6387,2.5908C519.0859,338.6313,517.5752,337.5756,517.5752,334.8173Z" transform="translate(-258.9694 -166.067)"/><path class="cls-9" d="M523.8633,333.0185c0-1.56.8633-2.4707,2.0146-2.4707s2.0157.9111,2.0157,2.4707-.8643,2.4941-2.0157,2.4941S523.8633,334.5776,523.8633,333.0185Zm2.6152,0c0-1.0557-.2881-1.3438-.6006-1.3438s-.6.2881-.6,1.3438.2881,1.3672.6,1.3672S526.4785,334.0737,526.4785,333.0185Zm3.8613-2.4707h1.1514l-4.1738,8.0835H526.166Zm-.6,5.5889c0-1.5591.8633-2.4707,2.0147-2.4707s2.0146.9116,2.0146,2.4707-.8632,2.4946-2.0146,2.4946S529.74,337.6957,529.74,336.1367Zm2.6143,0c0-1.0557-.2871-1.3433-.6-1.3433s-.6.2876-.6,1.3433.2881,1.3671.6,1.3671S532.3545,337.1918,532.3545,336.1367Z" transform="translate(-258.9694 -166.067)"/><path class="cls-9" d="M519.5059,362.1044l.9355-1.2954a2.3981,2.3981,0,0,0,1.5586.72c.6719,0,1.1035-.24,1.1035-.72,0-.5757-.3-.9111-1.8945-.9111v-1.44c1.2705,0,1.6543-.3359,1.6543-.8632,0-.4561-.2754-.6958-.791-.6958a1.9875,1.9875,0,0,0-1.3438.6235l-1.0312-1.2471a3.7469,3.7469,0,0,1,2.4707-.9834c1.6787,0,2.7588.7676,2.7588,2.1465a1.7543,1.7543,0,0,1-1.2237,1.6431v.0483a1.85,1.85,0,0,1,1.4629,1.8228c0,1.4394-1.3672,2.2309-2.95,2.2309A3.4027,3.4027,0,0,1,519.5059,362.1044Z" transform="translate(-258.9694 -166.067)"/><path class="cls-9" d="M526.0088,357.5712c0-1.5595.8633-2.4707,2.0146-2.4707s2.0157.9112,2.0157,2.4707-.8643,2.4942-2.0157,2.4942S526.0088,359.13,526.0088,357.5712Zm2.6152,0c0-1.0556-.2881-1.3437-.6006-1.3437s-.6.2881-.6,1.3437.2881,1.3672.6,1.3672S528.624,358.6264,528.624,357.5712Zm3.8614-2.4707h1.1513l-4.1738,8.0835h-1.1514Zm-.6,5.5889c0-1.5591.8633-2.4707,2.0147-2.4707s2.0146.9116,2.0146,2.4707-.8632,2.4946-2.0146,2.4946S531.8857,362.2485,531.8857,360.6894Zm2.6143,0c0-1.0557-.2871-1.3433-.6-1.3433s-.6.2876-.6,1.3433.2881,1.3672.6,1.3672S534.5,361.7446,534.5,360.6894Z" transform="translate(-258.9694 -166.067)"/><path class="cls-9" d="M541.3027,351.312h1.6309v-3.9336h-1.4395v-1.2715a5.4006,5.4006,0,0,0,1.9913-.7437h1.5107v5.9488h1.3672v1.6552h-5.0606Z" transform="translate(-258.9694 -166.067)"/><path class="cls-9" d="M547.3984,349.1293c0-2.6025,1.1514-3.91,2.83-3.91s2.83,1.3188,2.83,3.91c0,2.6026-1.1514,3.982-2.83,3.982S547.3984,351.7319,547.3984,349.1293Zm3.7178,0c0-2.0146-.4082-2.3266-.8877-2.3266s-.8877.312-.8877,2.3266.4082,2.3985.8877,2.3985S551.1162,351.144,551.1162,349.1293Z" transform="translate(-258.9694 -166.067)"/><path class="cls-9" d="M553.7344,347.4985c0-1.56.8633-2.4707,2.0146-2.4707s2.0156.9111,2.0156,2.4707-.8642,2.4941-2.0156,2.4941S553.7344,349.0576,553.7344,347.4985Zm2.6152,0c0-1.0557-.2881-1.3438-.6006-1.3438s-.6.2881-.6,1.3438.2881,1.3672.6,1.3672S556.35,348.5537,556.35,347.4985Zm3.8613-2.4707h1.1514l-4.1738,8.0835h-1.1514Zm-.6,5.5888c0-1.559.8633-2.4707,2.0147-2.4707s2.0146.9117,2.0146,2.4707-.8633,2.4947-2.0146,2.4947S559.6113,352.1757,559.6113,350.6166Zm2.6143,0c0-1.0556-.2871-1.3432-.6-1.3432s-.6.2876-.6,1.3432.2881,1.3672.6,1.3672S562.2256,351.6718,562.2256,350.6166Z" transform="translate(-258.9694 -166.067)"/><line class="cls-12" x1="203.7329" y1="169.9999" x2="212.8006" y2="160.9322"/><line class="cls-12" x1="245.939" y1="172.4348" x2="212.8006" y2="160.9322"/><line class="cls-12" x1="229.8742" y1="183.4196" x2="279.4187" y2="183.4196"/><line class="cls-12" x1="215.5267" y1="189.65" x2="224.5944" y2="198.7176"/><line class="cls-12" x1="260.2961" y1="196.9731" x2="224.5944" y2="198.7176"/></g></svg>