<svg xmlns="http://www.w3.org/2000/svg" viewBox="0 0 367.5405 24"><defs><style>.cls-1{fill:#0a374d;}.cls-2{fill:#bba135;}.cls-3{fill:#c25828;}.cls-4{fill:#1287a8;}.cls-5{fill:#9a2820;}.cls-6{fill:#4f5a90;}.cls-7{fill:#374370;}.cls-8{fill:#fff;}.cls-9{fill:#d2d2d2;}</style></defs><title>Asset 1</title><g id="Layer_2" data-name="Layer 2"><g id="Layer_1-2" data-name="Layer 1"><g id="facebook"><rect class="cls-1" x="45.3934" width="51" height="24" rx="12"/><rect class="cls-2" x="326.5405" width="41" height="24" rx="12"/><rect class="cls-3" x="98.0865" width="81" height="24" rx="12"/><rect class="cls-4" x="180.7912" width="78" height="24" rx="12"/><rect class="cls-5" x="259.7076" width="65" height="24" rx="12"/><circle class="cls-6" cx="10.6254" cy="12.2823" r="10.6254"/><path class="cls-7" d="M21.234,11.6887,16.2294,6.6826c-.083.0251-.29-.0712-.3808-.0529-2.1465.3578-4.2215,0-6.2965.5724-1.0017.2862-1.0733,1.5026-1.431,2.29-.5009,1.4311-.4293,3.0052-1.0733,4.3647-.4293.93-1.431,1.5025-1.7888,2.5758-.1193.4477-.1123,1.0119-.2472,1.44l5.0213,5.0189q.2942.0162.5922.0167A10.6254,10.6254,0,0,0,21.2507,12.2823C21.2508,12.0831,21.2448,11.8852,21.234,11.6887Z"/><path class="cls-8" d="M15.0682,6.2H6.1825a1.639,1.639,0,0,0-1.639,1.6391v8.8857a1.639,1.639,0,0,0,1.639,1.639h4.3823l.0076-4.3465H9.4431a.2664.2664,0,0,1-.2664-.2655l-.0055-1.4012a.2665.2665,0,0,1,.2664-.2674H10.565V10.73a2.2119,2.2119,0,0,1,2.361-2.4265h1.15a.2665.2665,0,0,1,.2665.2665V9.7509a.2664.2664,0,0,1-.2663.2665l-.7059,0c-.7621,0-.91.3622-.91.8938v1.172h1.6748a.2663.2663,0,0,1,.2646.2977l-.1661,1.4012a.2664.2664,0,0,1-.2646.2352H12.4681l-.0075,4.3467h2.6076a1.6391,1.6391,0,0,0,1.639-1.6391V7.8394A1.639,1.639,0,0,0,15.0682,6.2Z"/><polygon class="cls-8" points="10.565 18.364 10.572 14.018 10.554 14.018 10.554 18.364 10.565 18.364"/><path class="cls-9" d="M15.0682,6.2H10.5538v5.883h.0112V10.73A2.2119,2.2119,0,0,1,12.926,8.303h1.15a.2665.2665,0,0,1,.2665.2665V9.7509a.2664.2664,0,0,1-.2663.2664l-.7059,0c-.7621,0-.91.3622-.91.8938v1.172h1.6748a.2663.2663,0,0,1,.2646.2977l-.1661,1.4012a.2664.2664,0,0,1-.2646.2351H12.4681l-.0075,4.3467h2.6076a1.6391,1.6391,0,0,0,1.639-1.6391V7.8394A1.639,1.639,0,0,0,15.0682,6.2Z"/><path class="cls-8" d="M60.2118,15.255l.9121-1.2954a2.41,2.41,0,0,0,1.5351.72c.7188,0,1.127-.312,1.127-.9834a.9326.9326,0,0,0-1.0313-.9834,1.6467,1.6467,0,0,0-1.0556.36l-.8877-.5757.1924-3.91h4.51v1.727H62.7782l-.0957,1.1035a1.9347,1.9347,0,0,1,.72-.12,2.2381,2.2381,0,0,1,2.4463,2.3511,2.6772,2.6772,0,0,1-2.878,2.6865A3.7468,3.7468,0,0,1,60.2118,15.255Z"/><path class="cls-8" d="M67.22,14.5353H68.85V10.6017H67.411V9.33a5.4018,5.4018,0,0,0,1.9912-.7436h1.5107v5.9487H72.28v1.6553H67.22Z"/><path class="cls-8" d="M73.1717,10.7218c0-1.56.8633-2.4707,2.0147-2.4707s2.0156.9111,2.0156,2.4707-.8643,2.4941-2.0156,2.4941S73.1717,12.2809,73.1717,10.7218Zm2.6153,0c0-1.0557-.2881-1.3437-.6006-1.3437s-.6.288-.6,1.3437.288,1.3672.6,1.3672S75.787,11.777,75.787,10.7218Zm3.8613-2.4707H80.8l-4.1738,8.0835H75.4745Zm-.6,5.5889c0-1.5591.8633-2.4707,2.0146-2.4707s2.0147.9116,2.0147,2.4707-.8633,2.4946-2.0147,2.4946S79.0487,15.3991,79.0487,13.84Zm2.6142,0c0-1.0557-.2871-1.3433-.6-1.3433s-.6.2876-.6,1.3433.2881,1.3672.6,1.3672S81.6629,14.8951,81.6629,13.84Z"/><path class="cls-8" d="M128.1454,14.2477a1.983,1.983,0,0,1,1.247-1.7993v-.0479a2.1908,2.1908,0,0,1-1.0078-1.7988c0-1.3433,1.0557-2.1587,2.543-2.1587a2.1189,2.1189,0,0,1,2.375,2.1108,1.9311,1.9311,0,0,1-.9717,1.5948v.0483A2.17,2.17,0,0,1,133.6385,14.2c0,1.2232-1.1162,2.1348-2.7832,2.1348C129.3084,16.3346,128.1454,15.4948,128.1454,14.2477Zm3.5859-.12c0-.5518-.5274-.7676-1.4277-1.1514a1.6411,1.6411,0,0,0-.3956,1.0317.91.91,0,0,0,.9961.9112A.7343.7343,0,0,0,131.7313,14.1276Zm-.084-3.43a.74.74,0,0,0-.7676-.8394.6618.6618,0,0,0-.6953.7437c0,.5039.4072.7676,1.127,1.0552A1.6649,1.6649,0,0,0,131.6473,10.6974Z"/><path class="cls-8" d="M134.9129,14.5353h1.6309V10.6017h-1.44V9.33a5.4011,5.4011,0,0,0,1.9912-.7436h1.5108v5.9487h1.3672v1.6553h-5.0606Z"/><path class="cls-8" d="M140.8651,10.7218c0-1.56.8633-2.4707,2.0146-2.4707s2.0157.9111,2.0157,2.4707-.8643,2.4941-2.0157,2.4941S140.8651,12.2809,140.8651,10.7218Zm2.6152,0c0-1.0557-.2881-1.3437-.6006-1.3437s-.6.288-.6,1.3437.2881,1.3672.6,1.3672S143.48,11.777,143.48,10.7218Zm3.8613-2.4707h1.1514l-4.1738,8.0835h-1.1514Zm-.6,5.5889c0-1.5591.8633-2.4707,2.0147-2.4707s2.0146.9116,2.0146,2.4707-.8633,2.4946-2.0146,2.4946S146.742,15.3991,146.742,13.84Zm2.6143,0c0-1.0557-.2871-1.3433-.6-1.3433s-.6.2876-.6,1.3433.2881,1.3672.6,1.3672S149.3563,14.8951,149.3563,13.84Z"/><path class="cls-8" d="M212.6356,10.3136h-3.2627V8.5866h5.4453V9.858c-1.751,2.0508-1.9424,3.37-2.0869,6.3326h-2.0625A9.76,9.76,0,0,1,212.6356,10.3136Z"/><path class="cls-8" d="M215.8289,14.2477a1.9831,1.9831,0,0,1,1.2471-1.7993v-.0479a2.1908,2.1908,0,0,1-1.0078-1.7988c0-1.3433,1.0557-2.1587,2.543-2.1587a2.1189,2.1189,0,0,1,2.375,2.1108,1.9311,1.9311,0,0,1-.9717,1.5948v.0483A2.17,2.17,0,0,1,221.3221,14.2c0,1.2232-1.1162,2.1348-2.7832,2.1348C216.992,16.3346,215.8289,15.4948,215.8289,14.2477Zm3.586-.12c0-.5518-.5274-.7676-1.4278-1.1514a1.6416,1.6416,0,0,0-.3955,1.0317.91.91,0,0,0,.9952.9112A.7346.7346,0,0,0,219.4149,14.1276Zm-.084-3.43a.74.74,0,0,0-.7676-.8394.6618.6618,0,0,0-.6953.7437c0,.5039.4072.7676,1.127,1.0552A1.6649,1.6649,0,0,0,219.3309,10.6974Z"/><path class="cls-8" d="M222.0692,10.7218c0-1.56.8633-2.4707,2.0146-2.4707s2.0157.9111,2.0157,2.4707-.8643,2.4941-2.0157,2.4941S222.0692,12.2809,222.0692,10.7218Zm2.6152,0c0-1.0557-.2881-1.3437-.6006-1.3437s-.6.288-.6,1.3437.2881,1.3672.6,1.3672S224.6844,11.777,224.6844,10.7218Zm3.8613-2.4707h1.1514l-4.1738,8.0835h-1.1514Zm-.6,5.5889c0-1.5591.8633-2.4707,2.0147-2.4707s2.0146.9116,2.0146,2.4707-.8633,2.4946-2.0146,2.4946S227.9461,15.3991,227.9461,13.84Zm2.6143,0c0-1.0557-.2871-1.3433-.6-1.3433s-.6.2876-.6,1.3433.2881,1.3672.6,1.3672S230.56,14.8951,230.56,13.84Z"/><path class="cls-8" d="M281.7186,12.5206c0-2.7588,1.5107-4.0776,3.1416-4.0776a3.3,3.3,0,0,1,2.375.96l-1.0791,1.2231a1.7313,1.7313,0,0,0-1.1514-.5278c-.8037,0-1.415.6-1.415,2.4228,0,1.8951.5869,2.2788,1.0547,2.2788.4316,0,.8154-.2519.8154-1.0556,0-.7315-.4072-.9116-.8389-.9116a1.14,1.14,0,0,0-1.0078.72l-.0957-1.2949a2.0233,2.0233,0,0,1,1.5108-.8638,2.13,2.13,0,0,1,2.3027,2.3506,2.5047,2.5047,0,0,1-2.6387,2.5908C283.2293,16.3346,281.7186,15.2789,281.7186,12.5206Z"/><path class="cls-8" d="M288.0057,15.255l.9121-1.2954a2.41,2.41,0,0,0,1.5352.72c.7187,0,1.1269-.312,1.1269-.9834a.9325.9325,0,0,0-1.0312-.9834,1.6472,1.6472,0,0,0-1.0557.36l-.8877-.5757.1924-3.91h4.5088v1.727h-2.7344l-.0957,1.1035a1.9354,1.9354,0,0,1,.72-.12,2.2381,2.2381,0,0,1,2.4463,2.3511,2.6771,2.6771,0,0,1-2.8779,2.6865A3.7469,3.7469,0,0,1,288.0057,15.255Z"/><path class="cls-8" d="M294.4862,10.7218c0-1.56.8633-2.4707,2.0146-2.4707s2.0156.9111,2.0156,2.4707-.8642,2.4941-2.0156,2.4941S294.4862,12.2809,294.4862,10.7218Zm2.6152,0c0-1.0557-.2881-1.3437-.6006-1.3437s-.6.288-.6,1.3437.2881,1.3672.6,1.3672S297.1014,11.777,297.1014,10.7218Zm3.8613-2.4707h1.1514L297.94,16.3346h-1.1514Zm-.6,5.5889c0-1.5591.8633-2.4707,2.0147-2.4707s2.0146.9116,2.0146,2.4707-.8633,2.4946-2.0146,2.4946S300.3631,15.3991,300.3631,13.84Zm2.6143,0c0-1.0557-.2871-1.3433-.6-1.3433s-.6.2876-.6,1.3433.2881,1.3672.6,1.3672S302.9774,14.8951,302.9774,13.84Z"/><path class="cls-8" d="M341.2293,12.0485c0-.5157.0479-1.2832.0713-1.7989h-.0478c-.1914.4561-.4073.9117-.624,1.3672l-.6954,1.2954h4.03v1.5591h-5.9726V13.0324l2.59-4.462h2.5674v7.604h-1.919Z"/><path class="cls-8" d="M345.0223,14.5192h1.6309V10.5856h-1.44V9.3141a5.3994,5.3994,0,0,0,1.9912-.7437h1.5108v5.9488h1.3672v1.6552h-5.0606Z"/><path class="cls-8" d="M350.9745,10.7057c0-1.56.8632-2.4707,2.0146-2.4707s2.0156.9111,2.0156,2.4707S354.1405,13.2,352.9891,13.2,350.9745,12.2648,350.9745,10.7057Zm2.6152,0c0-1.0557-.2881-1.3438-.6006-1.3438s-.6.2881-.6,1.3438.2881,1.3672.6,1.3672S353.59,11.7609,353.59,10.7057ZM357.451,8.235h1.1514l-4.1738,8.0835h-1.1514Zm-.6,5.5889c0-1.5591.8633-2.4707,2.0147-2.4707s2.0146.9116,2.0146,2.4707-.8633,2.4946-2.0146,2.4946S356.8514,15.3829,356.8514,13.8239Zm2.6143,0c0-1.0557-.2871-1.3433-.6-1.3433s-.6.2876-.6,1.3433.2881,1.3671.6,1.3671S359.4657,14.879,359.4657,13.8239Z"/></g></g></g></svg>