<svg xmlns="http://www.w3.org/2000/svg" xmlns:xlink="http://www.w3.org/1999/xlink" viewBox="0 0 335.478 28.2453"><defs><style>.cls-1{fill:#0a374d;}.cls-2{fill:#bba135;}.cls-3{fill:#c25828;}.cls-4{fill:#1287a8;}.cls-5{fill:#9a2820;}.cls-6{fill:url(#linear-gradient);}.cls-7{fill:#fff;}.cls-8{fill:none;stroke:#fff;stroke-miterlimit:10;}</style><linearGradient id="linear-gradient" x1="-366.138" y1="589.2832" x2="-365.6971" y2="589.7571" gradientTransform="translate(-23180.1827 -15455.9296) rotate(-90) scale(42.2827 39.3387)" gradientUnits="userSpaceOnUse"><stop offset="0" stop-color="#fedd57"/><stop offset="0.5" stop-color="#f15843"/><stop offset="1" stop-color="#bb469a"/></linearGradient></defs><title>instagram.svg</title><g id="Layer_2" data-name="Layer 2"><g id="Layer_1-2" data-name="Layer 1"><g id="instagram"><rect class="cls-1" x="44.4352" y="4.2453" width="72" height="24" rx="12"/><rect class="cls-2" x="247.8395" y="4.2453" width="10" height="24" rx="5"/><rect class="cls-3" x="118.2715" y="4.2453" width="64" height="24" rx="12"/><rect class="cls-4" x="183.7713" y="4.2453" width="40" height="24" rx="12"/><rect class="cls-5" x="225.0737" y="4.2453" width="21" height="24" rx="10.5"/><path class="cls-6" d="M1.4,6.7894C-.2817,8.5357.0624,10.3908.0624,16.0265c0,4.68-.8165,9.3717,3.457,10.4762a101.8425,101.8425,0,0,0,14.4913-.0018,4.5954,4.5954,0,0,0,3.4249-4.4189c.0276-.3512.0276-11.7536-.0009-12.1119A4.6025,4.6025,0,0,0,17.4,5.4317a19.2441,19.2441,0,0,0-3.1548-.098C5.1766,5.3381,3.1887,4.9343,1.4,6.7894Z"/><path class="cls-7" d="M10.7579,8.1319c-3.2368,0-6.31-.2879-7.4845,2.7251-.485,1.2445-.4145,2.8607-.4145,5.1748a16.4873,16.4873,0,0,0,.4145,5.174c1.1713,3.0148,4.27,2.726,7.4827,2.726,3.1,0,6.2954.3227,7.4837-2.726.4858-1.257.4145-2.8491.4145-5.174,0-3.0861.17-5.0785-1.3265-6.5743-1.5154-1.5155-3.5649-1.3256-6.5735-1.3256ZM10.05,9.5555c6.7518-.0107,7.6111-.7612,7.1369,9.6659-.1685,3.6879-2.9766,3.2832-6.4282,3.2832-6.2936,0-6.4745-.18-6.4745-6.4763,0-6.3693.4992-6.4692,5.7658-6.4745Zm4.9243,1.3113a.9476.9476,0,1,0,.9476.9476A.9477.9477,0,0,0,14.9744,10.8668Zm-4.2165,1.1081a4.0565,4.0565,0,1,0,4.0552,4.0569,4.0567,4.0567,0,0,0-4.0552-4.0569Zm0,1.4236c3.4811,0,3.4855,5.2667,0,5.2667C7.2777,18.6652,7.2724,13.3985,10.7579,13.3985Z"/><path class="cls-7" d="M73.0523,14.5591H69.79V12.832h5.4453v1.2715c-1.751,2.0508-1.9424,3.37-2.0869,6.3325H71.0855A9.76,9.76,0,0,1,73.0523,14.5591Z"/><path class="cls-7" d="M76.1733,19.2608c1.7989-1.6553,3.1905-2.9263,3.1905-3.9581a.8855.8855,0,0,0-.9356-1.0073,1.8705,1.8705,0,0,0-1.247.72l-1.1036-1.1035a3.291,3.291,0,0,1,2.6387-1.2231,2.4249,2.4249,0,0,1,2.6143,2.4946c0,1.2232-1.1514,2.5664-2.1826,3.6221a12.1325,12.1325,0,0,1,1.2714-.0962h1.2715v1.727H76.1733Z"/><path class="cls-7" d="M82.4858,14.9673c0-1.56.8633-2.4707,2.0147-2.4707s2.0156.9111,2.0156,2.4707-.8642,2.4941-2.0156,2.4941S82.4858,16.5264,82.4858,14.9673Zm2.6153,0c0-1.0557-.2881-1.3438-.6006-1.3438s-.6.2881-.6,1.3438.2881,1.3672.6,1.3672S85.1011,16.0225,85.1011,14.9673Zm3.8613-2.4707h1.1514L85.94,20.58H84.7886Zm-.6,5.5889c0-1.5591.8633-2.4707,2.0146-2.4707s2.0147.9116,2.0147,2.4707S91.5288,20.58,90.3774,20.58,88.3628,19.6445,88.3628,18.0855Zm2.6143,0c0-1.0557-.2872-1.3433-.6-1.3433s-.6.2876-.6,1.3433.2881,1.3671.6,1.3671S90.9771,19.1406,90.9771,18.0855Z"/><path class="cls-7" d="M141.3862,16.7661c0-2.7588,1.5108-4.0776,3.1416-4.0776a3.3,3.3,0,0,1,2.375.96l-1.0791,1.2231a1.7313,1.7313,0,0,0-1.1513-.5278c-.8037,0-1.4151.6-1.4151,2.4228,0,1.895.5869,2.2788,1.0547,2.2788.4317,0,.8154-.2519.8154-1.0556,0-.7315-.4072-.9117-.8388-.9117a1.14,1.14,0,0,0-1.0078.72l-.0957-1.2949a2.0229,2.0229,0,0,1,1.5107-.8638,2.13,2.13,0,0,1,2.3027,2.3506A2.5047,2.5047,0,0,1,144.36,20.58C142.897,20.58,141.3862,19.5244,141.3862,16.7661Z"/><path class="cls-7" d="M150.8882,16.31c0-.5157.0478-1.2832.0713-1.7989h-.0479c-.1914.4561-.4072.9117-.623,1.3672l-.6963,1.2954h4.03v1.5591H147.65V17.294l2.59-4.462h2.5673v7.604h-1.9189Z"/><path class="cls-7" d="M154.1538,14.9673c0-1.56.8633-2.4707,2.0147-2.4707s2.0156.9111,2.0156,2.4707-.8643,2.4941-2.0156,2.4941S154.1538,16.5264,154.1538,14.9673Zm2.6152,0c0-1.0557-.288-1.3438-.6005-1.3438s-.6.2881-.6,1.3438.288,1.3672.6,1.3672S156.769,16.0225,156.769,14.9673Zm3.8614-2.4707h1.1513L157.6079,20.58h-1.1514Zm-.6,5.5889c0-1.5591.8632-2.4707,2.0146-2.4707s2.0147.9116,2.0147,2.4707-.8633,2.4946-2.0147,2.4946S160.0308,19.6445,160.0308,18.0855Zm2.6142,0c0-1.0557-.2871-1.3433-.6-1.3433s-.6.2876-.6,1.3433.2881,1.3671.6,1.3671S162.645,19.1406,162.645,18.0855Z"/><path class="cls-7" d="M197.9087,16.31c0-.5157.0478-1.2832.0713-1.7989h-.0479c-.1914.4561-.4072.9117-.624,1.3672l-.6953,1.2954h4.03v1.5591H194.67V17.294l2.59-4.462h2.5673v7.604h-1.9189Z"/><path class="cls-7" d="M201.3179,16.5982c0-2.6026,1.1513-3.91,2.83-3.91s2.83,1.3188,2.83,3.91c0,2.6025-1.1513,3.9819-2.83,3.9819S201.3179,19.2007,201.3179,16.5982Zm3.7177,0c0-2.0147-.4082-2.3267-.8876-2.3267s-.8877.312-.8877,2.3267.4082,2.3984.8877,2.3984S205.0356,18.6128,205.0356,16.5982Z"/><path class="cls-7" d="M207.6538,14.9673c0-1.56.8633-2.4707,2.0147-2.4707s2.0156.9111,2.0156,2.4707-.8643,2.4941-2.0156,2.4941S207.6538,16.5264,207.6538,14.9673Zm2.6152,0c0-1.0557-.288-1.3438-.6005-1.3438s-.6.2881-.6,1.3438.288,1.3672.6,1.3672S210.269,16.0225,210.269,14.9673Zm3.8614-2.4707h1.1513L211.1079,20.58h-1.1514Zm-.6,5.5889c0-1.5591.8632-2.4707,2.0146-2.4707s2.0147.9116,2.0147,2.4707-.8633,2.4946-2.0147,2.4946S213.5308,19.6445,213.5308,18.0855Zm2.6142,0c0-1.0557-.2871-1.3433-.6-1.3433s-.6.2876-.6,1.3433.2881,1.3671.6,1.3671S216.145,19.1406,216.145,18.0855Z"/><path class="cls-7" d="M281.0083,10.8c1.7988-1.6553,3.19-2.9263,3.19-3.958a.8854.8854,0,0,0-.9355-1.0073,1.8706,1.8706,0,0,0-1.2471.72l-1.1035-1.1035a3.29,3.29,0,0,1,2.6387-1.2232,2.4249,2.4249,0,0,1,2.6142,2.4947c0,1.2231-1.1513,2.5664-2.1826,3.622a12.1622,12.1622,0,0,1,1.2715-.0961h1.2705v1.727h-5.5166Z"/><path class="cls-7" d="M287.8481,10.32h1.6309V6.3862H288.04V5.1148a5.4008,5.4008,0,0,0,1.9912-.7437h1.5107V10.32h1.3672v1.6553h-5.0606Z"/><path class="cls-7" d="M293.8,6.5064c0-1.56.8633-2.4707,2.0146-2.4707s2.0157.9111,2.0157,2.4707-.8643,2.4941-2.0157,2.4941S293.8,8.0654,293.8,6.5064Zm2.6152,0c0-1.0557-.2881-1.3438-.6006-1.3438s-.6.2881-.6,1.3438.2881,1.3671.6,1.3671S296.4155,7.5615,296.4155,6.5064Zm3.8614-2.4707h1.1513l-4.1738,8.0835H296.103Zm-.6,5.5888c0-1.5591.8632-2.4707,2.0146-2.4707s2.0146.9116,2.0146,2.4707-.8632,2.4947-2.0146,2.4947S299.6773,11.1836,299.6773,9.6245Zm2.6142,0c0-1.0556-.2871-1.3432-.6-1.3432s-.6.2876-.6,1.3432.2881,1.3672.6,1.3672S302.2915,10.68,302.2915,9.6245Z"/><path class="cls-7" d="M313.14,25.1045h1.6309V21.1709h-1.44V19.8994a5.4006,5.4006,0,0,0,1.9913-.7436h1.5107v5.9487h1.3672V26.76H313.14Z"/><path class="cls-7" d="M319.2358,22.9219c0-2.6026,1.1514-3.91,2.83-3.91s2.83,1.3189,2.83,3.91c0,2.6025-1.1514,3.9819-2.83,3.9819S319.2358,25.5244,319.2358,22.9219Zm3.7178,0c0-2.0147-.4082-2.3267-.8877-2.3267s-.8877.312-.8877,2.3267.4082,2.3984.8877,2.3984S322.9536,24.9365,322.9536,22.9219Z"/><path class="cls-7" d="M325.5718,21.291c0-1.5595.8633-2.4707,2.0146-2.4707s2.0157.9112,2.0157,2.4707-.8643,2.4942-2.0157,2.4942S325.5718,22.85,325.5718,21.291Zm2.6152,0c0-1.0556-.2881-1.3437-.6006-1.3437s-.6.2881-.6,1.3437.2881,1.3672.6,1.3672S328.187,22.3462,328.187,21.291Zm3.8613-2.4707H333.2l-4.1738,8.0835h-1.1514Zm-.6,5.5889c0-1.5591.8633-2.4707,2.0147-2.4707s2.0146.9116,2.0146,2.4707-.8632,2.4946-2.0146,2.4946S331.4487,25.9683,331.4487,24.4092Zm2.6143,0c0-1.0557-.2871-1.3433-.6-1.3433s-.6.2876-.6,1.3433.2881,1.3672.6,1.3672S334.063,25.4644,334.063,24.4092Z"/><line class="cls-8" x1="238.3704" y1="9.54" x2="247.438" y2="0.4724"/><line class="cls-8" x1="280.5765" y1="11.9749" x2="247.438" y2="0.4724"/><line class="cls-8" x1="257.8395" y1="23.2453" x2="307.384" y2="23.2453"/></g></g></g></svg>