<svg xmlns="http://www.w3.org/2000/svg" viewBox="0 0 214.6263 29.9549"><defs><style>.cls-1{fill:#c25828;}.cls-2{fill:#1287a8;}.cls-3{fill:#9a2820;}.cls-4{fill:#bba135;}.cls-5{fill:#0378b8;}.cls-6{fill:#fff;}.cls-7{fill:none;stroke:#fff;stroke-miterlimit:10;}</style></defs><title>linkin</title><g id="Layer_2" data-name="Layer 2"><g id="Layer_1-2" data-name="Layer 1"><g id="linkedln"><rect class="cls-1" x="44.7607" y="5.9549" width="29" height="24" rx="12"/><rect class="cls-2" x="77.2582" y="5.9549" width="33" height="24" rx="12"/><rect class="cls-3" x="111.8699" y="5.9549" width="24" height="24" rx="12"/><rect class="cls-4" x="138.7237" y="5.9549" width="9" height="24" rx="4.5"/><path class="cls-5" d="M21.1248,6.3905H2.101A2.101,2.101,0,0,0,0,8.4915V27.5152a2.101,2.101,0,0,0,2.101,2.1011H21.1247a2.1011,2.1011,0,0,0,2.1011-2.1011V8.4915A2.1011,2.1011,0,0,0,21.1248,6.3905ZM7.187,26.4452a.6114.6114,0,0,1-.6114.6114H3.973a.6114.6114,0,0,1-.6114-.6114v-10.91a.6114.6114,0,0,1,.6114-.6114H6.5756a.6114.6114,0,0,1,.6114.6114Zm-1.9127-12.55a2.4725,2.4725,0,1,1,2.4725-2.4725A2.4725,2.4725,0,0,1,5.2743,13.8952Zm15.514,12.5992a.5622.5622,0,0,1-.5622.5622H17.4333a.5623.5623,0,0,1-.5622-.5622V21.377c0-.7635.224-3.3453-1.995-3.3453-1.7212,0-2.07,1.7672-2.14,2.56v5.9024a.5622.5622,0,0,1-.5622.5622H9.4724a.5623.5623,0,0,1-.5622-.5622V15.4858a.5622.5622,0,0,1,.5622-.5621h2.7011a.5622.5622,0,0,1,.5622.5621v.9519a3.8341,3.8341,0,0,1,3.6062-1.6971c4.472,0,4.4464,4.178,4.4464,6.4735v5.28Z"/><path class="cls-6" d="M49.08,19.8152c1.7989-1.6553,3.1905-2.9263,3.1905-3.958a.8855.8855,0,0,0-.9356-1.0074,1.8707,1.8707,0,0,0-1.2471.72l-1.1035-1.1035a3.2906,3.2906,0,0,1,2.6387-1.2232,2.4249,2.4249,0,0,1,2.6143,2.4946c0,1.2232-1.1514,2.5664-2.1827,3.6221a12.1635,12.1635,0,0,1,1.2715-.0962h1.27v1.7271H49.08Z"/><path class="cls-6" d="M55.6078,20.175l1.08-1.2236a1.7247,1.7247,0,0,0,1.1513.5278c.8155,0,1.4151-.6,1.4151-2.4223,0-1.895-.5879-2.2788-1.0557-2.2788-.4316,0-.8154.2514-.8154,1.0551,0,.7315.4072.9117.84.9117a1.1383,1.1383,0,0,0,1.0068-.72l.0958,1.2954a2.0225,2.0225,0,0,1-1.5108.8633,2.13,2.13,0,0,1-2.3027-2.3506,2.5046,2.5046,0,0,1,2.6386-2.59c1.4629,0,2.9747,1.0552,2.9747,3.814s-1.5118,4.0776-3.1426,4.0776A3.3033,3.3033,0,0,1,55.6078,20.175Z"/><path class="cls-6" d="M61.8724,15.5217c0-1.56.8633-2.4707,2.0147-2.4707s2.0156.9111,2.0156,2.4707-.8643,2.4942-2.0156,2.4942S61.8724,17.0808,61.8724,15.5217Zm2.6153,0c0-1.0556-.2881-1.3437-.6006-1.3437s-.6.2881-.6,1.3437.2881,1.3672.6,1.3672S64.4877,16.5769,64.4877,15.5217ZM68.349,13.051H69.5l-4.1739,8.0835H64.1752Zm-.6,5.5889c0-1.5591.8633-2.4707,2.0146-2.4707s2.0147.9116,2.0147,2.4707-.8633,2.4946-2.0147,2.4946S67.7494,20.199,67.7494,18.64Zm2.6142,0c0-1.0557-.2871-1.3433-.6-1.3433s-.6.2876-.6,1.3433.2881,1.3672.6,1.3672S70.3636,19.6951,70.3636,18.64Z"/><path class="cls-6" d="M83.3871,20.0549l.9355-1.2954a2.3985,2.3985,0,0,0,1.5586.72c.6719,0,1.1035-.24,1.1035-.72,0-.5757-.3-.9111-1.8945-.9111v-1.44c1.27,0,1.6543-.3359,1.6543-.8633,0-.456-.2754-.6958-.791-.6958a1.9876,1.9876,0,0,0-1.3438.6236l-1.0312-1.2471a3.7469,3.7469,0,0,1,2.4707-.9834c1.6787,0,2.7588.7676,2.7588,2.1465a1.7543,1.7543,0,0,1-1.2237,1.6431v.0483a1.85,1.85,0,0,1,1.4629,1.8228c0,1.4394-1.3672,2.2309-2.95,2.2309A3.4027,3.4027,0,0,1,83.3871,20.0549Z"/><path class="cls-6" d="M89.8666,20.0549l.9355-1.2954a2.3985,2.3985,0,0,0,1.5586.72c.6719,0,1.1035-.24,1.1035-.72,0-.5757-.3-.9111-1.8945-.9111v-1.44c1.27,0,1.6543-.3359,1.6543-.8633,0-.456-.2754-.6958-.791-.6958a1.9876,1.9876,0,0,0-1.3438.6236L90.058,14.2263a3.7469,3.7469,0,0,1,2.4707-.9834c1.6787,0,2.7588.7676,2.7588,2.1465a1.7543,1.7543,0,0,1-1.2237,1.6431v.0483a1.85,1.85,0,0,1,1.4629,1.8228c0,1.4394-1.3672,2.2309-2.95,2.2309A3.4027,3.4027,0,0,1,89.8666,20.0549Z"/><path class="cls-6" d="M96.3705,15.5217c0-1.56.8633-2.4707,2.0146-2.4707s2.0156.9111,2.0156,2.4707-.8642,2.4942-2.0156,2.4942S96.3705,17.0808,96.3705,15.5217Zm2.6152,0c0-1.0556-.2881-1.3437-.6006-1.3437s-.6.2881-.6,1.3437.2881,1.3672.6,1.3672S98.9857,16.5769,98.9857,15.5217Zm3.8613-2.4707h1.1514l-4.1738,8.0835H98.6732Zm-.6,5.5889c0-1.5591.8633-2.4707,2.0147-2.4707s2.0146.9116,2.0146,2.4707-.8633,2.4946-2.0146,2.4946S102.2474,20.199,102.2474,18.64Zm2.6143,0c0-1.0557-.2871-1.3433-.6-1.3433s-.6.2876-.6,1.3433.2881,1.3672.6,1.3672S104.8617,19.6951,104.8617,18.64Z"/><path class="cls-6" d="M172.642,14.7551c1.7988-1.6553,3.19-2.9263,3.19-3.958a.8854.8854,0,0,0-.9356-1.0073,1.87,1.87,0,0,0-1.247.72L172.5463,9.406a3.29,3.29,0,0,1,2.6386-1.2231,2.4249,2.4249,0,0,1,2.6143,2.4946c0,1.2231-1.1514,2.5664-2.1826,3.6221a12.1343,12.1343,0,0,1,1.2715-.0962h1.27V15.93H172.642Z"/><path class="cls-6" d="M182.1683,11.8044c0-.5156.0479-1.2832.0713-1.7988h-.0478c-.1914.4561-.4073.9116-.6231,1.3672l-.6963,1.2954h4.03v1.5591H178.93v-1.439l2.59-4.4619h2.5674V15.93h-1.919Z"/><path class="cls-6" d="M185.434,10.4617c0-1.56.8632-2.4707,2.0146-2.4707s2.0156.9111,2.0156,2.4707-.8642,2.4941-2.0156,2.4941S185.434,12.0207,185.434,10.4617Zm2.6152,0c0-1.0557-.2881-1.3438-.6006-1.3438s-.6.2881-.6,1.3438.2881,1.3671.6,1.3671S188.0492,11.5168,188.0492,10.4617Zm3.8613-2.4707h1.1514l-4.1738,8.0835h-1.1514Zm-.6,5.5888c0-1.5591.8633-2.4707,2.0147-2.4707s2.0146.9116,2.0146,2.4707-.8633,2.4947-2.0146,2.4947S191.3109,15.1389,191.3109,13.58Zm2.6143,0c0-1.0556-.2871-1.3432-.6-1.3432s-.6.2876-.6,1.3432.2881,1.3672.6,1.3672S193.9252,14.635,193.9252,13.58Z"/><path class="cls-6" d="M198.4564,27.7327l1.08-1.2237a1.7249,1.7249,0,0,0,1.1514.5279c.8154,0,1.415-.6,1.415-2.4224,0-1.895-.5879-2.2788-1.0557-2.2788-.4316,0-.8154.2514-.8154,1.0552,0,.7314.4072.9116.84.9116a1.1386,1.1386,0,0,0,1.0069-.72l.0957,1.2954a2.0227,2.0227,0,0,1-1.5108.8632,2.13,2.13,0,0,1-2.3027-2.3505,2.5046,2.5046,0,0,1,2.6387-2.59c1.4629,0,2.9746,1.0552,2.9746,3.814s-1.5117,4.0776-3.1426,4.0776A3.3036,3.3036,0,0,1,198.4564,27.7327Z"/><path class="cls-6" d="M204.72,23.0793c0-1.5595.8633-2.4707,2.0146-2.4707s2.0157.9112,2.0157,2.4707-.8643,2.4942-2.0157,2.4942S204.72,24.6384,204.72,23.0793Zm2.6152,0c0-1.0556-.2881-1.3437-.6006-1.3437s-.6.2881-.6,1.3437.2881,1.3672.6,1.3672S207.3353,24.1345,207.3353,23.0793Zm3.8613-2.4707h1.1514l-4.1738,8.0835h-1.1514Zm-.6,5.5889c0-1.5591.8633-2.4707,2.0147-2.4707s2.0146.9116,2.0146,2.4707-.8632,2.4946-2.0146,2.4946S210.597,27.7566,210.597,26.1975Zm2.6143,0c0-1.0557-.2871-1.3433-.6-1.3433s-.6.2876-.6,1.3433.2881,1.3672.6,1.3672S213.2113,27.2527,213.2113,26.1975Z"/><line class="cls-7" x1="129.0744" y1="9.54" x2="138.1421" y2="0.4724"/><line class="cls-7" x1="171.2805" y1="11.9749" x2="138.1421" y2="0.4724"/><line class="cls-7" x1="146.2157" y1="25.9598" x2="195.7602" y2="25.9598"/></g></g></g></svg>