<svg xmlns="http://www.w3.org/2000/svg" viewBox="0 0 303.7771 38.7572"><defs><style>.cls-1{fill:#0a374d;}.cls-2{fill:#bba135;}.cls-3{fill:#1287a8;}.cls-4{fill:#9a2820;}.cls-5{fill:#c25828;}.cls-6{fill:#f4e204;}.cls-7{fill:#fff;}.cls-8{fill:#010101;}.cls-9{fill:none;stroke:#fff;stroke-miterlimit:10;}</style></defs><title>snapchat</title><g id="Layer_2" data-name="Layer 2"><g id="Layer_1-2" data-name="Layer 1"><g id="snapchat"><rect class="cls-1" x="43.4493" y="8.0097" width="69" height="24" rx="12"/><rect class="cls-2" x="225.7704" y="8.0097" width="3" height="24" rx="1.5"/><rect class="cls-3" x="182.3511" y="7.9558" width="26" height="24" rx="12"/><rect class="cls-4" x="210.3514" y="7.9558" width="10" height="24" rx="5"/><rect class="cls-5" x="113.1577" y="8.0097" width="68" height="24" rx="12"/><path class="cls-6" d="M22.8211,26.5124a5.6892,5.6892,0,0,1-5.669,5.669H5.85a5.6892,5.6892,0,0,1-5.6691-5.669V15.2105A5.6893,5.6893,0,0,1,5.85,9.5414H17.1521a5.6892,5.6892,0,0,1,5.669,5.6691Z"/><path class="cls-7" d="M11.4468,14.4135a3.9415,3.9415,0,0,0-2.427.797,3.8347,3.8347,0,0,0-1.1773,1.5576s-.0362,0-.0362.0181A4.8617,4.8617,0,0,0,7.5708,18.67h0a2.41,2.41,0,0,1,.0725,1.2316.1823.1823,0,0,0,.0181.0543,3.2506,3.2506,0,0,1-.5977.0181h0a2.0867,2.0867,0,0,1-.4709-.163.0177.0177,0,0,0-.0181-.0181.5652.5652,0,0,0-.4528.0906h0a.5018.5018,0,0,0-.2536.38V20.3a.4169.4169,0,0,0,.163.2536,1.7721,1.7721,0,0,1,.163.1268v-.0181a1.9482,1.9482,0,0,0,.96.38h0c.1993.1812.38.2536.4166.4347a.9585.9585,0,0,1-.1811.7607h0a4.609,4.609,0,0,1-1.449,1.6663,3.8125,3.8125,0,0,1-1.0686.4891H4.854a.7588.7588,0,0,0-.38.2173c0,.0181-.0181.0181-.0181.0362a.3583.3583,0,0,0,.0543.3079.3345.3345,0,0,0,.163.1268h0a4.3364,4.3364,0,0,0,.9962.3441h0a4.4471,4.4471,0,0,1,.6158.1449.4569.4569,0,0,0,.0724.163c.0544.1812.0906.38.1449.5977a.2187.2187,0,0,0,.1268.1268.3551.3551,0,0,0,.2355-.0181h.0181A3.7983,3.7983,0,0,1,8.44,26.3856h0a5.767,5.767,0,0,1,1.449.7969H9.871a2.4543,2.4543,0,0,0,1.25.4347h0l-.0181.0362c.3441.0181.6339.0181.96.0181h0c.2717-.1811.5434-.163.7788-.3079a.0177.0177,0,0,1,.0181-.0181,16.8173,16.8173,0,0,1,1.5214-.9056h0a2.875,2.875,0,0,1,.6158-.0724h0a7.6639,7.6639,0,0,1,1.286.0724h.0362a.2235.2235,0,0,0,.1449-.0724.1173.1173,0,0,0,.0362-.0906c.0182-.0362.0182-.0724,0-.0362,0-.0181.0182-.0181.0182-.0362a1.7141,1.7141,0,0,1,.2535-.634.3091.3091,0,0,1,.2717-.0724h.0181a4.3952,4.3952,0,0,0,1.0143-.29h.0181a1.0188,1.0188,0,0,0,.4166-.2717h0A.2823.2823,0,0,0,18.42,24.52h-.09a1.6,1.6,0,0,0-.4166-.163h.0181a3.8381,3.8381,0,0,1-1.8293-1.34,5.1383,5.1383,0,0,1-.6339-1.1048h0a.5952.5952,0,0,1,.0181-.4709h0a1.319,1.319,0,0,1,.6339-.3985h0a2.3743,2.3743,0,0,0,.8512-.4347h0a.6469.6469,0,0,0,.0906-.163c.0362-.0724.1449-.1811-.0181-.29h0a.3065.3065,0,0,0-.2355-.326h-.5071a3.5967,3.5967,0,0,1-.4528.1268h0a1.5067,1.5067,0,0,1-.5071-.0543v-.1268h0c-.0181-.3622-.0544-.6158-.0544-.96h0a11.1687,11.1687,0,0,0,0-1.5577h.0181a3.52,3.52,0,0,0-1.4489-2.1915,5.8125,5.8125,0,0,0-1.775-.67h0C11.8634,14.3954,11.646,14.4135,11.4468,14.4135Z"/><path class="cls-8" d="M17.1521,32.3625H5.85A5.8591,5.8591,0,0,1,0,26.5124V15.2105A5.8592,5.8592,0,0,1,5.85,9.36H17.1521a5.8591,5.8591,0,0,1,5.85,5.85V26.5124A5.8591,5.8591,0,0,1,17.1521,32.3625ZM5.85,9.7225a5.496,5.496,0,0,0-5.488,5.488V26.5124A5.4959,5.4959,0,0,0,5.85,32H17.1521A5.4958,5.4958,0,0,0,22.64,26.5124V15.2105a5.4959,5.4959,0,0,0-5.4879-5.488Z"/><path class="cls-8" d="M16.7536,31.2758H6.2486a5.2308,5.2308,0,0,1-5.1619-5.1619V15.6089A5.2187,5.2187,0,0,1,6.2486,10.447H16.7174a.1812.1812,0,0,1,0,.3623H6.2486a4.8553,4.8553,0,0,0-4.8,4.8v10.505a4.8675,4.8675,0,0,0,4.8,4.8h10.505a4.8675,4.8675,0,0,0,4.8-4.8V21.0425a.1811.1811,0,1,1,.3622,0v5.0714A5.2186,5.2186,0,0,1,16.7536,31.2758Z"/><path class="cls-8" d="M20.2311,12.3126a.1646.1646,0,0,1-.1268-.0544,5.2125,5.2125,0,0,0-3.5318-1.4489.1812.1812,0,0,1,0-.3623,5.5345,5.5345,0,0,1,3.7854,1.5576.1752.1752,0,0,1,0,.2536A.1412.1412,0,0,1,20.2311,12.3126Z"/><path class="cls-8" d="M21.7344,19.9558a.1711.1711,0,0,1-.1811-.1811V17.0941a.1811.1811,0,0,1,.3622,0v2.6806A.1711.1711,0,0,1,21.7344,19.9558Z"/><path class="cls-8" d="M11.5917,27.9432h-.1811a3.5368,3.5368,0,0,1-2.0829-.7969,2.552,2.552,0,0,0-.9237-.489,2.3038,2.3038,0,0,0-.5072-.0363,3.3345,3.3345,0,0,0-.6882.0725H7.1905a2.1752,2.1752,0,0,1-.3623.0543.56.56,0,0,1-.5614-.4166,2.45,2.45,0,0,1-.0725-.3079l-.0181-.0362A.6438.6438,0,0,1,6.14,25.806a4.9406,4.9406,0,0,1-1.34-.3622,1.09,1.09,0,0,1-.58-.5072v-.0181a.77.77,0,0,1-.0362-.1992.496.496,0,0,1,.4347-.5253,3.0388,3.0388,0,0,0,1.1591-.4528,3.8581,3.8581,0,0,0,.8332-.7245,4.3944,4.3944,0,0,0,.6882-1.0686V21.93a.0178.0178,0,0,1,.0182-.0181.5236.5236,0,0,0,.0724-.326c-.0724-.163-.4528-.29-.652-.3622l-.0544-.0182c-.0724-.0181-.1268-.0362-.1811-.0543a2.2615,2.2615,0,0,1-.5977-.3441.6916.6916,0,0,1-.2536-.67.7736.7736,0,0,1,.3985-.5071.9571.9571,0,0,1,.8513-.0724,1.2281,1.2281,0,0,0,.5614.1449h.0363a.5023.5023,0,0,0-.0181-.1631v-.0181A7.1171,7.1171,0,0,1,7.68,16.5689a4.53,4.53,0,0,1,.9056-1.3041A3.68,3.68,0,0,1,9.6718,14.54a4.433,4.433,0,0,1,1.7025-.3622h.2717a4.4327,4.4327,0,0,1,1.7025.3622,4.1653,4.1653,0,0,1,1.1049.7245,4.2517,4.2517,0,0,1,.9237,1.3041,7.1171,7.1171,0,0,1,.1992,2.9522v.0544a.269.269,0,0,1-.0181.1268h.0181a2.6047,2.6047,0,0,0,.5253-.1449.7872.7872,0,0,1,.3622-.0725.89.89,0,0,1,.38.0725.78.78,0,0,1,.5614.7063.7445.7445,0,0,1-.2173.5253,1.7242,1.7242,0,0,1-.6339.38.8488.8488,0,0,1-.163.0544h-.0725c-.1992.0724-.58.1811-.652.3622-.0362.0724-.0181.1811.0543.3441a.0636.0636,0,0,0,.0181.0363,3.9287,3.9287,0,0,0,2.6625,2.2277.5023.5023,0,0,1,.4347.5434.77.77,0,0,1-.0362.1992,1.0221,1.0221,0,0,1-.58.5072,4.9406,4.9406,0,0,1-1.34.3622.5361.5361,0,0,0-.0362.1811l-.0181.0906a1.0428,1.0428,0,0,1-.0725.2535.53.53,0,0,1-.5434.3985,3.3211,3.3211,0,0,1-.38-.0362,3.5337,3.5337,0,0,0-.7064-.0725,4.4543,4.4543,0,0,0-.5071.0363,2.4168,2.4168,0,0,0-.9237.489A3.5268,3.5268,0,0,1,11.5917,27.9432ZM7.8968,26.2588a2.8135,2.8135,0,0,1,.5615.0543,2.8505,2.8505,0,0,1,1.0686.5434,3.0678,3.0678,0,0,0,1.8837.7426h.163a3.0757,3.0757,0,0,0,1.8655-.7426,2.5652,2.5652,0,0,1,1.0867-.5434,3.1828,3.1828,0,0,1,1.34.0363,1.1661,1.1661,0,0,0,.29.0362.1832.1832,0,0,0,.1992-.1449c.0182-.0906.0363-.163.0544-.2355l.0181-.09c.0362-.163.0724-.2717.0906-.3442a.1877.1877,0,0,1,.1448-.1086,5.3653,5.3653,0,0,0,1.34-.3442.6831.6831,0,0,0,.3985-.326.1356.1356,0,0,0,.0181-.09.1738.1738,0,0,0-.1268-.163A4.31,4.31,0,0,1,15.359,22.093c0-.0181-.0181-.0181-.0181-.0362a.743.743,0,0,1-.0725-.6339c.1268-.326.58-.4709.8875-.5615l.0725-.0181a.46.46,0,0,1,.1267-.0362,1.4385,1.4385,0,0,0,.5072-.3079.3908.3908,0,0,0,.1268-.2536c0-.1449-.1268-.29-.3442-.3622a.5772.5772,0,0,0-.2535-.0544.5836.5836,0,0,0-.2174.0363,1.6174,1.6174,0,0,1-.652.1811h-.0362a.7579.7579,0,0,1-.2536-.0544.199.199,0,0,1-.1087-.1811v-.09a.8132.8132,0,0,1,.0181-.1993v-.0543a7.1531,7.1531,0,0,0-.163-2.7711A3.8186,3.8186,0,0,0,14.1455,15.5a3.3877,3.3877,0,0,0-.9962-.6521,3.8648,3.8648,0,0,0-1.5576-.326H11.32a3.8118,3.8118,0,0,0-1.5576.326,3.3877,3.3877,0,0,0-.9962.6521,3.8186,3.8186,0,0,0-.8331,1.1954,6.6229,6.6229,0,0,0-.163,2.7892v.0181c0,.1087.0181.2174.0181.326A.2.2,0,0,1,7.68,20.01a1.2407,1.2407,0,0,1-1.0143-.1268.6409.6409,0,0,0-.5071.0543.3934.3934,0,0,0-.2174.2717.3411.3411,0,0,0,.1449.326,1.9549,1.9549,0,0,0,.4891.2717,1.2424,1.2424,0,0,0,.1449.0543l.0543.0181c.3079.0906.7426.2355.8875.5615a.7042.7042,0,0,1-.0725.6158v.0181a4.6289,4.6289,0,0,1-.7426,1.1592,3.76,3.76,0,0,1-2.1915,1.3041.1586.1586,0,0,0-.1268.163.1632.1632,0,0,0,.0181.09h0a.741.741,0,0,0,.3985.3079,4.8292,4.8292,0,0,0,1.3584.3442.1362.1362,0,0,1,.1268.0905,1.9549,1.9549,0,0,1,.1086.3441l.0181.0544a2.2758,2.2758,0,0,0,.0725.29c.0362.1086.0906.1449.2173.1449a1.5768,1.5768,0,0,0,.29-.0363h.0181A5.3507,5.3507,0,0,1,7.8968,26.2588Z"/><path class="cls-7" d="M69.6472,20.3457c0-2.7588,1.5108-4.0777,3.1416-4.0777a3.3,3.3,0,0,1,2.375.9595l-1.0791,1.2232a1.7314,1.7314,0,0,0-1.1513-.5279c-.8038,0-1.4151.6-1.4151,2.4229,0,1.895.5869,2.2788,1.0547,2.2788.4316,0,.8154-.252.8154-1.0557,0-.7314-.4072-.9116-.8388-.9116a1.14,1.14,0,0,0-1.0078.72L71.446,20.082a2.0233,2.0233,0,0,1,1.5108-.8638A2.13,2.13,0,0,1,75.26,21.5688,2.5046,2.5046,0,0,1,72.6209,24.16C71.158,24.16,69.6472,23.104,69.6472,20.3457Z"/><path class="cls-7" d="M76.15,23.2l1.08-1.2237a1.7253,1.7253,0,0,0,1.1514.5279c.8154,0,1.415-.6,1.415-2.4224,0-1.895-.5879-2.2788-1.0556-2.2788-.4317,0-.8155.2515-.8155,1.0552,0,.7314.4073.9116.84.9116a1.1384,1.1384,0,0,0,1.0068-.72l.0957,1.2954a2.0228,2.0228,0,0,1-1.5107.8633,2.13,2.13,0,0,1-2.3028-2.3506,2.5047,2.5047,0,0,1,2.6387-2.59c1.4629,0,2.9746,1.0552,2.9746,3.814S80.156,24.16,78.5252,24.16A3.3034,3.3034,0,0,1,76.15,23.2Z"/><path class="cls-7" d="M82.4148,18.5469c0-1.56.8633-2.4708,2.0146-2.4708s2.0157.9112,2.0157,2.4708-.8643,2.4941-2.0157,2.4941S82.4148,20.1059,82.4148,18.5469Zm2.6152,0c0-1.0557-.2881-1.3438-.6006-1.3438s-.6.2881-.6,1.3438.2881,1.3671.6,1.3671S85.03,19.602,85.03,18.5469Zm3.8614-2.4708h1.1513L85.8689,24.16H84.7175Zm-.6,5.5889c0-1.5591.8632-2.4707,2.0146-2.4707s2.0146.9116,2.0146,2.4707S91.4578,24.16,90.3064,24.16,88.2918,23.2241,88.2918,21.665Zm2.6142,0c0-1.0556-.2871-1.3432-.6-1.3432s-.6.2876-.6,1.3432.2881,1.3672.6,1.3672S90.906,22.72,90.906,21.665Z"/><path class="cls-7" d="M141.8552,20.3457c0-2.7588,1.5108-4.0777,3.1416-4.0777a3.3,3.3,0,0,1,2.375.9595l-1.0791,1.2232a1.7314,1.7314,0,0,0-1.1513-.5279c-.8037,0-1.4151.6-1.4151,2.4229,0,1.895.5869,2.2788,1.0547,2.2788.4317,0,.8154-.252.8154-1.0557,0-.7314-.4072-.9116-.8388-.9116a1.14,1.14,0,0,0-1.0078.72l-.0957-1.2949a2.0229,2.0229,0,0,1,1.5107-.8638,2.13,2.13,0,0,1,2.3027,2.3506,2.5046,2.5046,0,0,1-2.6386,2.5908C143.366,24.16,141.8552,23.104,141.8552,20.3457Z"/><path class="cls-7" d="M148.3826,22.0727a1.983,1.983,0,0,1,1.247-1.7993v-.0478a2.191,2.191,0,0,1-1.0078-1.7989c0-1.3432,1.0557-2.1587,2.543-2.1587a2.1189,2.1189,0,0,1,2.375,2.1109,1.9306,1.9306,0,0,1-.9717,1.5947v.0483a2.1706,2.1706,0,0,1,1.3076,2.003c0,1.2231-1.1162,2.1347-2.7832,2.1347C149.5457,24.16,148.3826,23.32,148.3826,22.0727Zm3.5859-.12c0-.5517-.5273-.7676-1.4277-1.1514a1.6413,1.6413,0,0,0-.3955,1.0318.91.91,0,0,0,.9951.9111A.7345.7345,0,0,0,151.9685,21.9526Zm-.084-3.43a.74.74,0,0,0-.7676-.8393.6617.6617,0,0,0-.6953.7436c0,.5039.4073.7676,1.127,1.0552A1.6644,1.6644,0,0,0,151.8845,18.5224Z"/><path class="cls-7" d="M154.6228,18.5469c0-1.56.8633-2.4708,2.0147-2.4708s2.0156.9112,2.0156,2.4708-.8643,2.4941-2.0156,2.4941S154.6228,20.1059,154.6228,18.5469Zm2.6152,0c0-1.0557-.288-1.3438-.6005-1.3438s-.6.2881-.6,1.3438.2881,1.3671.6,1.3671S157.238,19.602,157.238,18.5469Zm3.8614-2.4708h1.1513L158.0769,24.16h-1.1514Zm-.6,5.5889c0-1.5591.8632-2.4707,2.0146-2.4707s2.0147.9116,2.0147,2.4707-.8633,2.4946-2.0147,2.4946S160.5,23.2241,160.5,21.665Zm2.6142,0c0-1.0556-.2871-1.3432-.6-1.3432s-.6.2876-.6,1.3432.2881,1.3672.6,1.3672S163.114,22.72,163.114,21.665Z"/><path class="cls-7" d="M251.2078,10.7851c1.7988-1.6552,3.19-2.9262,3.19-3.958a.8854.8854,0,0,0-.9355-1.0073,1.8708,1.8708,0,0,0-1.2471.72L251.1121,5.436a3.2906,3.2906,0,0,1,2.6386-1.2231,2.4249,2.4249,0,0,1,2.6143,2.4946c0,1.2231-1.1514,2.5664-2.1826,3.6221a12.1343,12.1343,0,0,1,1.2715-.0962h1.27V11.96h-5.5166Z"/><path class="cls-7" d="M257.7117,8.2905c0-2.7588,1.5107-4.0776,3.1416-4.0776a3.3,3.3,0,0,1,2.375.9594l-1.0791,1.2232a1.7318,1.7318,0,0,0-1.1514-.5278c-.8037,0-1.415.6-1.415,2.4228,0,1.895.5869,2.2788,1.0547,2.2788.4316,0,.8154-.2519.8154-1.0557,0-.7314-.4072-.9116-.8389-.9116a1.1406,1.1406,0,0,0-1.0078.72l-.0957-1.295a2.0234,2.0234,0,0,1,1.5107-.8637,2.13,2.13,0,0,1,2.3028,2.3505,2.5048,2.5048,0,0,1-2.6387,2.5909C259.2224,12.1045,257.7117,11.0488,257.7117,8.2905Z"/><path class="cls-7" d="M264,6.4917c0-1.56.8632-2.4707,2.0146-2.4707s2.0156.9111,2.0156,2.4707-.8642,2.4941-2.0156,2.4941S264,8.0508,264,6.4917Zm2.6152,0c0-1.0557-.2881-1.3438-.6006-1.3438s-.6.2881-.6,1.3438.2881,1.3672.6,1.3672S266.615,7.5469,266.615,6.4917Zm3.8613-2.4707h1.1514l-4.1738,8.0835h-1.1514Zm-.6,5.5888c0-1.559.8633-2.4707,2.0147-2.4707s2.0146.9117,2.0146,2.4707-.8633,2.4947-2.0146,2.4947S269.8767,11.1689,269.8767,9.61Zm2.6143,0c0-1.0556-.2871-1.3432-.6-1.3432s-.6.2876-.6,1.3432.288,1.3672.6,1.3672S272.491,10.665,272.491,9.61Z"/><path class="cls-7" d="M259.6423,35.5776l.9356-1.2954a2.3983,2.3983,0,0,0,1.5586.72c.6719,0,1.1035-.24,1.1035-.72,0-.5757-.3-.9111-1.8945-.9111V31.9316c1.27,0,1.6543-.3359,1.6543-.8633,0-.456-.2754-.6958-.7911-.6958a1.9874,1.9874,0,0,0-1.3437.6236l-1.0313-1.2471a3.7473,3.7473,0,0,1,2.4707-.9834c1.6788,0,2.7588.7676,2.7588,2.1465a1.7543,1.7543,0,0,1-1.2236,1.6431v.0483a1.85,1.85,0,0,1,1.4629,1.8227c0,1.4395-1.3672,2.231-2.95,2.231A3.4028,3.4028,0,0,1,259.6423,35.5776Z"/><path class="cls-7" d="M266.1453,31.0444c0-1.56.8632-2.4707,2.0146-2.4707s2.0156.9111,2.0156,2.4707-.8642,2.4941-2.0156,2.4941S266.1453,32.6035,266.1453,31.0444Zm2.6152,0c0-1.0557-.2881-1.3437-.6006-1.3437s-.6.288-.6,1.3437.2881,1.3672.6,1.3672S268.7605,32.1,268.7605,31.0444Zm3.8613-2.4707h1.1514l-4.1738,8.0835H268.448Zm-.6,5.5889c0-1.5591.8633-2.4707,2.0147-2.4707s2.0146.9116,2.0146,2.4707-.8633,2.4946-2.0146,2.4946S272.0222,35.7217,272.0222,34.1626Zm2.6143,0c0-1.0557-.2871-1.3433-.6-1.3433s-.6.2876-.6,1.3433.288,1.3672.6,1.3672S274.6365,35.2177,274.6365,34.1626Z"/><path class="cls-7" d="M281.4392,24.7851H283.07V20.8515h-1.44V19.58a5.3994,5.3994,0,0,0,1.9912-.7437h1.5108v5.9487H286.5V26.44h-5.0606Z"/><path class="cls-7" d="M287.5349,22.6025c0-2.6025,1.1514-3.91,2.83-3.91s2.83,1.3189,2.83,3.91c0,2.6026-1.1514,3.9819-2.83,3.9819S287.5349,25.2051,287.5349,22.6025Zm3.7178,0c0-2.0146-.4082-2.3266-.8877-2.3266s-.8877.312-.8877,2.3266.4082,2.3985.8877,2.3985S291.2527,24.6172,291.2527,22.6025Z"/><path class="cls-7" d="M293.8709,20.9717c0-1.56.8632-2.4707,2.0146-2.4707s2.0156.9111,2.0156,2.4707-.8642,2.4941-2.0156,2.4941S293.8709,22.5307,293.8709,20.9717Zm2.6152,0c0-1.0557-.2881-1.3438-.6006-1.3438s-.6.2881-.6,1.3438.2881,1.3671.6,1.3671S296.4861,22.0268,296.4861,20.9717Zm3.8613-2.4707h1.1514l-4.1738,8.0834h-1.1514Zm-.6,5.5888c0-1.5591.8633-2.4707,2.0147-2.4707s2.0146.9116,2.0146,2.4707-.8633,2.4946-2.0146,2.4946S299.7478,25.6489,299.7478,24.09Zm2.6143,0c0-1.0556-.2871-1.3432-.6-1.3432s-.6.2876-.6,1.3432.2881,1.3672.6,1.3672S302.3621,25.145,302.3621,24.09Z"/><line class="cls-9" x1="202.8387" y1="9.54" x2="211.9064" y2="0.4724"/><line class="cls-9" x1="245.0449" y1="11.9749" x2="211.9064" y2="0.4724"/><line class="cls-9" x1="228.9801" y1="22.9598" x2="278.5246" y2="22.9598"/><line class="cls-9" x1="214.6326" y1="29.1901" x2="223.7003" y2="38.2578"/><line class="cls-9" x1="259.402" y1="36.5133" x2="223.7003" y2="38.2578"/></g></g></g></svg>