<svg xmlns="http://www.w3.org/2000/svg" viewBox="0 0 251.3565 29.9409"><defs><style>.cls-1{fill:#0a374d;}.cls-2{fill:#bba135;}.cls-3{fill:#c25828;}.cls-4{fill:#1287a8;}.cls-5{fill:#9a2820;}.cls-6{fill:#39a4dd;}.cls-7{fill:#fff;}.cls-8{fill:none;stroke:#fff;stroke-miterlimit:10;}</style></defs><title>twitter.svg</title><g id="Layer_2" data-name="Layer 2"><g id="Layer_1-2" data-name="Layer 1"><g id="twitter"><rect class="cls-1" x="45.9923" y="5.9409" width="32" height="24" rx="12"/><rect class="cls-2" x="172.4125" y="5.9409" width="8" height="24" rx="4"/><rect class="cls-3" x="79.5775" y="5.9409" width="40" height="24" rx="12"/><rect class="cls-4" x="120.6615" y="5.9409" width="27" height="24" rx="12"/><rect class="cls-5" x="150.5786" y="5.9409" width="19" height="24" rx="9.5"/><path class="cls-6" d="M27.3551,9.4591a11.6921,11.6921,0,0,1-3.2313.8856,5.5765,5.5765,0,0,0,2.4671-3.1,11.2047,11.2047,0,0,1-3.5562,1.3575,5.6077,5.6077,0,0,0-9.7008,3.8349,5.77,5.77,0,0,0,.13,1.2788A15.8736,15.8736,0,0,1,1.9046,7.85,5.6094,5.6094,0,0,0,3.628,15.3456a5.538,5.538,0,0,1-2.5338-.6908v.0616a5.6337,5.6337,0,0,0,4.4931,5.51,5.5935,5.5935,0,0,1-1.47.1847,4.9606,4.9606,0,0,1-1.0617-.0957,5.6615,5.6615,0,0,0,5.24,3.9066,11.268,11.268,0,0,1-6.9533,2.3919A10.4892,10.4892,0,0,1,0,26.5372a15.7881,15.7881,0,0,0,8.6032,2.5167A15.8517,15.8517,0,0,0,24.5649,13.0956c0-.2479-.0085-.4873-.0205-.7249A11.1882,11.1882,0,0,0,27.3551,9.4591Z"/><path class="cls-7" d="M51.06,21.1959l.9356-1.2954a2.3983,2.3983,0,0,0,1.5586.72c.6719,0,1.1035-.24,1.1035-.72,0-.5757-.3-.9111-1.8945-.9111V17.55c1.27,0,1.6543-.3359,1.6543-.8633,0-.456-.2754-.6958-.7911-.6958a1.9874,1.9874,0,0,0-1.3437.6236L51.251,15.3673a3.7473,3.7473,0,0,1,2.4707-.9834c1.6788,0,2.7588.7676,2.7588,2.1465a1.7543,1.7543,0,0,1-1.2236,1.6431v.0483A1.85,1.85,0,0,1,56.72,20.0445c0,1.44-1.3672,2.231-2.95,2.231A3.4028,3.4028,0,0,1,51.06,21.1959Z"/><path class="cls-7" d="M57.7305,20.9562c1.7989-1.6553,3.1905-2.9263,3.1905-3.958a.8855.8855,0,0,0-.9356-1.0074,1.87,1.87,0,0,0-1.247.72L57.6348,15.607a3.291,3.291,0,0,1,2.6387-1.2231,2.4249,2.4249,0,0,1,2.6143,2.4946c0,1.2232-1.1514,2.5664-2.1827,3.6221a12.1635,12.1635,0,0,1,1.2715-.0962h1.2715v1.7271H57.7305Z"/><path class="cls-7" d="M64.043,16.6627c0-1.56.8633-2.4707,2.0147-2.4707s2.0156.9111,2.0156,2.4707-.8642,2.4941-2.0156,2.4941S64.043,18.2218,64.043,16.6627Zm2.6153,0c0-1.0557-.2881-1.3437-.6006-1.3437s-.6.288-.6,1.3437.2881,1.3672.6,1.3672S66.6583,17.7179,66.6583,16.6627ZM70.52,14.192H71.671l-4.1739,8.0835H66.3458Zm-.6,5.5889c0-1.5591.8633-2.4707,2.0146-2.4707s2.0147.9116,2.0147,2.4707-.8633,2.4946-2.0147,2.4946S69.92,21.34,69.92,19.7809Zm2.6142,0c0-1.0557-.2871-1.3433-.6-1.3433s-.6.2876-.6,1.3433.2881,1.3672.6,1.3672S72.5342,20.836,72.5342,19.7809Z"/><path class="cls-7" d="M95.0313,17.3644c0-.5157.0479-1.2832.0713-1.7989h-.0478c-.1914.4561-.4073.9117-.6241,1.3672l-.6953,1.2954h4.03v1.5591H91.793V18.3483l2.59-4.462H96.95V21.49h-1.919Z"/><path class="cls-7" d="M98.4405,17.6525c0-2.6026,1.1514-3.91,2.83-3.91s2.83,1.3188,2.83,3.91c0,2.6025-1.1514,3.9819-2.83,3.9819S98.4405,20.255,98.4405,17.6525Zm3.7178,0c0-2.0147-.4082-2.3267-.8877-2.3267s-.8877.312-.8877,2.3267.4082,2.3984.8877,2.3984S102.1583,19.6671,102.1583,17.6525Z"/><path class="cls-7" d="M104.7764,16.0216c0-1.56.8633-2.4707,2.0147-2.4707s2.0156.9111,2.0156,2.4707-.8642,2.4941-2.0156,2.4941S104.7764,17.5807,104.7764,16.0216Zm2.6153,0c0-1.0557-.2881-1.3438-.6006-1.3438s-.6.2881-.6,1.3438.2881,1.3672.6,1.3672S107.3917,17.0768,107.3917,16.0216Zm3.8613-2.4707h1.1514l-4.1739,8.0835h-1.1513Zm-.6,5.5889c0-1.5591.8633-2.4707,2.0146-2.4707s2.0147.9116,2.0147,2.4707-.8633,2.4946-2.0147,2.4946S110.6534,20.6988,110.6534,19.14Zm2.6142,0c0-1.0557-.2871-1.3433-.6-1.3433s-.6.2876-.6,1.3433.2881,1.3671.6,1.3671S113.2676,20.1949,113.2676,19.14Z"/><path class="cls-7" d="M122.919,20.3151c1.7988-1.6553,3.19-2.9263,3.19-3.9581a.8854.8854,0,0,0-.9355-1.0073,1.871,1.871,0,0,0-1.2471.72l-1.1035-1.1035a3.2908,3.2908,0,0,1,2.6387-1.2231,2.4249,2.4249,0,0,1,2.6142,2.4946c0,1.2232-1.1513,2.5664-2.1826,3.6221a12.1363,12.1363,0,0,1,1.2715-.0962h1.27V21.49H122.919Z"/><path class="cls-7" d="M132.7569,15.6134h-3.2627V13.8863H134.94v1.2715c-1.751,2.0508-1.9433,3.37-2.0869,6.3325H130.79A9.7611,9.7611,0,0,1,132.7569,15.6134Z"/><path class="cls-7" d="M135.711,16.0216c0-1.56.8633-2.4707,2.0147-2.4707s2.0156.9111,2.0156,2.4707-.8643,2.4941-2.0156,2.4941S135.711,17.5807,135.711,16.0216Zm2.6152,0c0-1.0557-.288-1.3438-.6005-1.3438s-.6.2881-.6,1.3438.2881,1.3672.6,1.3672S138.3262,17.0768,138.3262,16.0216Zm3.8614-2.4707h1.1513l-4.1738,8.0835h-1.1514Zm-.6,5.5889c0-1.5591.8632-2.4707,2.0146-2.4707s2.0147.9116,2.0147,2.4707-.8633,2.4946-2.0147,2.4946S141.588,20.6988,141.588,19.14Zm2.6142,0c0-1.0557-.2871-1.3433-.6-1.3433s-.6.2876-.6,1.3433.2881,1.3671.6,1.3671S144.2022,20.1949,144.2022,19.14Z"/><path class="cls-7" d="M235.211,26.8248a1.9831,1.9831,0,0,1,1.2471-1.7993v-.0478a2.191,2.191,0,0,1-1.0078-1.7989c0-1.3432,1.0556-2.1587,2.5429-2.1587a2.1189,2.1189,0,0,1,2.375,2.1109,1.9308,1.9308,0,0,1-.9716,1.5947v.0483a2.1706,2.1706,0,0,1,1.3076,2.003c0,1.2231-1.1162,2.1347-2.7832,2.1347C236.3741,28.9117,235.211,28.0719,235.211,26.8248Zm3.5859-.12c0-.5518-.5273-.7676-1.4277-1.1514a1.6419,1.6419,0,0,0-.3955,1.0318.91.91,0,0,0,.9961.9111A.7342.7342,0,0,0,238.7969,26.7047Zm-.0839-3.43a.74.74,0,0,0-.7676-.8393.6616.6616,0,0,0-.6953.7436c0,.5039.4072.7676,1.1269,1.0552A1.6646,1.6646,0,0,0,238.713,23.2745Z"/><path class="cls-7" d="M241.45,23.2989c0-1.5595.8632-2.4707,2.0146-2.4707s2.0156.9112,2.0156,2.4707-.8642,2.4942-2.0156,2.4942S241.45,24.858,241.45,23.2989Zm2.6152,0c0-1.0556-.2881-1.3437-.6006-1.3437s-.6.2881-.6,1.3437.2881,1.3672.6,1.3672S244.0655,24.3541,244.0655,23.2989Zm3.8613-2.4707h1.1514l-4.1738,8.0835H243.753Zm-.6,5.5889c0-1.5591.8633-2.4707,2.0147-2.4707s2.0146.9116,2.0146,2.4707-.8633,2.4946-2.0146,2.4946S247.3272,27.9762,247.3272,26.4171Zm2.6143,0c0-1.0557-.2871-1.3433-.6-1.3433s-.6.2876-.6,1.3433.288,1.3672.6,1.3672S249.9415,27.4723,249.9415,26.4171Z"/><path class="cls-7" d="M209.8477,13.84h1.6309V9.9068h-1.44V8.6354a5.3994,5.3994,0,0,0,1.9912-.7437h1.5108V13.84h1.3672v1.6553h-5.0606Z"/><path class="cls-7" d="M216.0147,14.68l1.08-1.2236a1.7254,1.7254,0,0,0,1.1514.5278c.8154,0,1.415-.6,1.415-2.4224,0-1.895-.5879-2.2788-1.0557-2.2788-.4316,0-.8154.2515-.8154,1.0552,0,.7314.4072.9116.84.9116a1.1385,1.1385,0,0,0,1.0068-.72l.0957,1.2954a2.0225,2.0225,0,0,1-1.5108.8633,2.13,2.13,0,0,1-2.3027-2.3506,2.5046,2.5046,0,0,1,2.6387-2.59c1.4629,0,2.9746,1.0551,2.9746,3.8139S220.0206,15.64,218.39,15.64A3.3037,3.3037,0,0,1,216.0147,14.68Z"/><path class="cls-7" d="M222.2794,10.027c0-1.56.8632-2.4707,2.0146-2.4707s2.0156.9111,2.0156,2.4707-.8642,2.4941-2.0156,2.4941S222.2794,11.586,222.2794,10.027Zm2.6152,0c0-1.0557-.2881-1.3438-.6006-1.3438s-.6.2881-.6,1.3438.2881,1.3672.6,1.3672S224.8946,11.0821,224.8946,10.027Zm3.8613-2.4707h1.1514L225.7335,15.64h-1.1514Zm-.6,5.5888c0-1.5591.8633-2.4707,2.0147-2.4707s2.0146.9116,2.0146,2.4707-.8633,2.4947-2.0146,2.4947S228.1563,14.7042,228.1563,13.1451Zm2.6143,0c0-1.0556-.2871-1.3432-.6-1.3432s-.6.2876-.6,1.3432.288,1.3672.6,1.3672S230.7706,14.2,230.7706,13.1451Z"/><line class="cls-8" x1="164.0945" y1="9.54" x2="173.1622" y2="0.4724"/><line class="cls-8" x1="206.3006" y1="11.9749" x2="173.1622" y2="0.4724"/><line class="cls-8" x1="178.3062" y1="25.8915" x2="227.8507" y2="25.8915"/></g></g></g></svg>